<svg xmlns="http://www.w3.org/2000/svg" xmlns:xlink="http://www.w3.org/1999/xlink" viewBox="0 0 115.41 85.25"><defs><style>.cls-1{fill:none;}.cls-2{fill:#ab4c47;}.cls-3{clip-path:url(#clip-path);}.cls-4{fill:#c85752;}.cls-5{fill:#f36a5b;}.cls-6{clip-path:url(#clip-path-2);}.cls-7{clip-path:url(#clip-path-3);}</style><clipPath id="clip-path" transform="translate(0 5.15)"><path class="cls-1" d="M82.27,12s-9.36,6.71-14.64,8.45S53.49,27.28,44.46,33.8s-12.24,5.76-20.8,11c0,0-1-3.42-6.5-5.27S8.5,37.82,6.81,35.11,0,31.86,0,31.86s15.28-5.77,24.31-11.43S42.53,12.74,52.43,6.37L62.34,0a15,15,0,0,0,4.22,3.87c3.12,2.11,6.6.1,9.94,3s1.8,3.75,5.77,5.15"/></clipPath><clipPath id="clip-path-2" transform="translate(0 5.15)"><path class="cls-1" d="M84.34,36.82S75,43.53,69.7,45.28,55.56,52.13,46.53,58.65s-12.24,5.77-20.8,11c0,0-1-3.43-6.5-5.27S10.57,62.68,8.88,60s-6.81-3.24-6.81-3.24,15.28-5.78,24.32-11.43S44.6,37.6,54.51,31.22l9.9-6.37a14.83,14.83,0,0,0,4.22,3.87c3.12,2.11,6.6.1,10,3s1.79,3.75,5.76,5.15"/></clipPath><clipPath id="clip-path-3" transform="translate(0 5.15)"><path class="cls-1" d="M115.41,45.11s-9.36,6.7-14.65,8.45S86.63,60.42,77.59,66.94,65.36,72.7,56.79,78c0,0-1-3.42-6.49-5.27S41.64,71,39.94,68.24,33.14,65,33.14,65s15.28-5.78,24.31-11.43,18.22-7.69,28.12-14.06l9.91-6.37A15,15,0,0,0,99.69,37c3.13,2.1,6.61.1,10,3s1.79,3.75,5.77,5.15"/></clipPath></defs><g id="圖層_2" data-name="圖層 2"><g id="圖層_1-2" data-name="圖層 1"><path class="cls-2" d="M82.27,14.1s-9.36,6.71-14.64,8.45S53.49,29.41,44.46,35.93s-12.24,5.76-20.8,11c0,0-1-3.42-6.5-5.27S8.5,40,6.81,37.24,0,34,0,34s15.28-5.77,24.31-11.43S42.53,14.87,52.43,8.5l9.91-6.37A15,15,0,0,0,66.56,6c3.12,2.11,6.6.1,9.94,2.95s1.8,3.75,5.77,5.15Z" transform="translate(0 5.15)"/><polygon class="cls-2" points="82.27 17.12 82.27 19.25 78.18 18.55 82.27 17.12 82.27 17.12"/><path class="cls-2" d="M0,31.86V34l5.14-1.06S1,31.71,0,31.86Z" transform="translate(0 5.15)"/><g class="cls-3"><path class="cls-4" d="M82.27,12s-9.36,6.71-14.64,8.45S53.49,27.28,44.46,33.8s-12.24,5.76-20.8,11c0,0-1-3.42-6.5-5.27S8.5,37.82,6.81,35.11,0,31.86,0,31.86s15.28-5.77,24.31-11.43S42.53,12.74,52.43,6.37L62.34,0a15,15,0,0,0,4.22,3.87c3.12,2.11,6.6.1,9.94,3s1.8,3.75,5.77,5.15Z" transform="translate(0 5.15)"/><path class="cls-5" d="M79,7.54s-2.3,5.46-12.4,8.69-16,9.85-26.87,16.37a117.48,117.48,0,0,1-21.3,9.91l-3.39-1.95A99.25,99.25,0,0,0,43,26C56.88,15.54,69.81,14.38,74,4.15s5,3.39,5,3.39Z" transform="translate(0 5.15)"/><path class="cls-5" d="M69.37,2.05S67.07,7.51,57,10.74,41,20.59,30.09,27.11A117.23,117.23,0,0,1,8.8,37l-3.39-2A99.13,99.13,0,0,0,33.3,20.48c13.93-10.43,26.86-11.59,31-21.82s5,3.39,5,3.39Z" transform="translate(0 5.15)"/></g><path class="cls-2" d="M84.34,39S75,45.66,69.7,47.41,55.56,54.26,46.53,60.79s-12.24,5.76-20.8,11c0,0-1-3.43-6.5-5.27s-8.66-1.74-10.35-4.46-6.81-3.24-6.81-3.24,15.28-5.78,24.32-11.43S44.6,39.73,54.51,33.35L64.41,27a14.83,14.83,0,0,0,4.22,3.87c3.12,2.11,6.6.1,10,2.95s1.79,3.75,5.76,5.15Z" transform="translate(0 5.15)"/><polygon class="cls-2" points="84.34 41.98 84.34 44.11 80.25 43.4 84.34 41.98 84.34 41.98"/><path class="cls-2" d="M2.07,56.72v2.13l5.14-1.07s-4.1-1.22-5.14-1.06Z" transform="translate(0 5.15)"/><g class="cls-6"><path class="cls-4" d="M84.34,36.82S75,43.53,69.7,45.28,55.56,52.13,46.53,58.65s-12.24,5.77-20.8,11c0,0-1-3.43-6.5-5.27S10.57,62.68,8.88,60s-6.81-3.24-6.81-3.24,15.28-5.78,24.32-11.43S44.6,37.6,54.51,31.22l9.9-6.37a14.83,14.83,0,0,0,4.22,3.87c3.12,2.11,6.6.1,10,3s1.79,3.75,5.76,5.15Z" transform="translate(0 5.15)"/><path class="cls-5" d="M81.09,32.4s-2.3,5.45-12.4,8.68-16,9.85-26.87,16.38a118.31,118.31,0,0,1-21.3,9.91l-3.39-2A99.25,99.25,0,0,0,45,50.83C59,40.4,71.88,39.23,76.05,29s5,3.4,5,3.4Z" transform="translate(0 5.15)"/><path class="cls-5" d="M71.44,26.9S69.14,32.36,59,35.59,43.08,45.44,32.16,52a117.72,117.72,0,0,1-21.29,9.92l-3.39-2A99.25,99.25,0,0,0,35.37,45.34c13.93-10.44,26.86-11.6,31-21.83s5,3.39,5,3.39Z" transform="translate(0 5.15)"/></g><path class="cls-2" d="M115.41,47.24s-9.36,6.7-14.65,8.45S86.63,62.55,77.59,69.07s-12.23,5.76-20.8,11c0,0-1-3.42-6.49-5.27s-8.66-1.74-10.36-4.46-6.8-3.24-6.8-3.24S48.42,61.35,57.45,55.7,75.67,48,85.57,41.64l9.91-6.37a15,15,0,0,0,4.21,3.87c3.13,2.11,6.61.1,10,3s1.79,3.75,5.77,5.15Z" transform="translate(0 5.15)"/><polygon class="cls-2" points="115.41 50.26 115.41 52.39 111.32 51.68 115.41 50.26 115.41 50.26"/><path class="cls-2" d="M33.14,65v2.13l5.13-1.06S34.18,64.85,33.14,65Z" transform="translate(0 5.15)"/><g class="cls-7"><path class="cls-4" d="M115.41,45.11s-9.36,6.7-14.65,8.45S86.63,60.42,77.59,66.94,65.36,72.7,56.79,78c0,0-1-3.42-6.49-5.27S41.64,71,39.94,68.24,33.14,65,33.14,65s15.28-5.78,24.31-11.43,18.22-7.69,28.12-14.06l9.91-6.37A15,15,0,0,0,99.69,37c3.13,2.1,6.61.1,10,3s1.79,3.75,5.77,5.15Z" transform="translate(0 5.15)"/><path class="cls-5" d="M112.16,40.68s-2.3,5.46-12.41,8.68-16,9.86-26.87,16.38a118.06,118.06,0,0,1-21.29,9.91l-3.39-2A99.13,99.13,0,0,0,76.09,59.11C90,48.68,103,47.52,107.12,37.28s5,3.4,5,3.4Z" transform="translate(0 5.15)"/><path class="cls-5" d="M102.5,35.19s-2.29,5.45-12.4,8.68-16,9.85-26.87,16.38a118,118,0,0,1-21.3,9.91l-3.39-2A98.93,98.93,0,0,0,66.43,53.62C80.37,43.19,93.3,42,97.47,31.79s5,3.4,5,3.4Z" transform="translate(0 5.15)"/></g></g></g></svg>