<svg xmlns="http://www.w3.org/2000/svg" viewBox="0 0 113.28 78.13"><defs><style>.cls-1{fill:#e67f34;}.cls-2{fill:#f9d692;}</style></defs><g id="圖層_2" data-name="圖層 2"><g id="圖層_1-2" data-name="圖層 1"><path class="cls-1" d="M112.8,39.32a27,27,0,0,0-.76-3.57,48,48,0,0,0-1.9-5.48,37.8,37.8,0,0,0-2.48-4.82,43.91,43.91,0,0,0-7.78-9.56,35.63,35.63,0,0,0-3-2.61c-1.79-1.34-4.23-3.07-6.13-4.24a60.84,60.84,0,0,0-14-6.14,64.92,64.92,0,0,0-6.56-1.62A69.86,69.86,0,0,0,60.49.1C58.77,0,57.68,0,54.09,0c-1,0-2.24.13-3.2.18A65,65,0,0,0,44.41,1,70.27,70.27,0,0,0,37.5,2.59c-2,.57-4.65,1.47-6.59,2.24a61.3,61.3,0,0,0-11,5.83,50.59,50.59,0,0,0-6.81,5.46,32.34,32.34,0,0,0-3.7,4,70,70,0,0,0-4.16,6,34.93,34.93,0,0,0-2.51,5.19,46.66,46.66,0,0,0-2,6.6A59.72,59.72,0,0,0,0,45.16c0,8.26,5.3,16.54,16,23,21.8,13,57.66,13.4,80.09.81,11.4-6.4,17.14-14.91,17.16-23.45,0-1.85-.25-4.31-.48-6.15Z"/><path class="cls-2" d="M12.56,45.4c-.31,1.11-1,1.55-1.6,1.38s-1-.89-.67-2a4.39,4.39,0,0,1,1.76-2,4.47,4.47,0,0,1,.51,2.61Z"/><path class="cls-2" d="M47.42,46.6c.47,1,.24,1.81-.35,2.08s-1.32-.07-1.79-1.11a4.43,4.43,0,0,1,.08-2.66,4.45,4.45,0,0,1,2.06,1.69Z"/><path class="cls-2" d="M30.6,58.46c0,1.15-.54,1.75-1.19,1.74s-1.17-.62-1.16-1.77a4.43,4.43,0,0,1,1.21-2.37,4.37,4.37,0,0,1,1.14,2.4Z"/><path class="cls-2" d="M77.06,25.26c-.3,1.1-1,1.55-1.59,1.38s-1-.9-.68-2a4.39,4.39,0,0,1,1.76-2,4.39,4.39,0,0,1,.51,2.61Z"/><path class="cls-2" d="M101.19,31.51c.47,1,.25,1.81-.35,2.08s-1.32-.06-1.79-1.1a4.43,4.43,0,0,1,.08-2.66,4.4,4.4,0,0,1,2.06,1.68Z"/><path class="cls-2" d="M86.22,37.09c0,1.14-.55,1.74-1.2,1.74s-1.17-.63-1.15-1.77a4.37,4.37,0,0,1,1.2-2.37,4.43,4.43,0,0,1,1.15,2.4Z"/><path class="cls-2" d="M64,43.48c-.3,1.1-1,1.54-1.59,1.37s-1-.89-.68-2a4.39,4.39,0,0,1,1.77-2,4.41,4.41,0,0,1,.5,2.61Z"/><path class="cls-2" d="M82.2,57.89c.47,1,.25,1.81-.34,2.08s-1.33-.07-1.8-1.11a4.44,4.44,0,0,1,.08-2.66,4.45,4.45,0,0,1,2.06,1.69Z"/><path class="cls-2" d="M17.19,26.34c.47,1,.24,1.81-.35,2.08s-1.32-.06-1.79-1.1a4.43,4.43,0,0,1,.08-2.66,4.47,4.47,0,0,1,2.06,1.68Z"/><path class="cls-2" d="M50,4.85c.48,1,.25,1.81-.34,2.08s-1.32-.06-1.79-1.1a4.38,4.38,0,0,1,.07-2.66A4.42,4.42,0,0,1,50,4.85Z"/><path class="cls-2" d="M73,7.66c.48,1,.25,1.81-.34,2.08s-1.32-.07-1.8-1.1A4.43,4.43,0,0,1,70.9,6,4.36,4.36,0,0,1,73,7.66Z"/><path class="cls-2" d="M95.68,57.89c.48,1,.25,1.81-.34,2.08s-1.32-.07-1.8-1.11a4.44,4.44,0,0,1,.08-2.66,4.4,4.4,0,0,1,2.06,1.69Z"/><path class="cls-2" d="M88.55,12.48c.47,1,.24,1.81-.35,2.08s-1.32-.06-1.79-1.1a4.38,4.38,0,0,1,.07-2.66,4.41,4.41,0,0,1,2.07,1.68Z"/><path class="cls-2" d="M100.84,47.64c-.58,1-1.35,1.24-1.91.91s-.7-1.12-.12-2.1A4.44,4.44,0,0,1,101,45a4.39,4.39,0,0,1-.2,2.65Z"/><path class="cls-2" d="M60.43,66.91c0,1.14-.54,1.75-1.19,1.74s-1.17-.62-1.15-1.77a4.37,4.37,0,0,1,1.2-2.37,4.37,4.37,0,0,1,1.14,2.4Z"/><path class="cls-2" d="M30.58,17.26c-.3,1.1-1,1.55-1.59,1.38s-1-.9-.67-2a4.39,4.39,0,0,1,1.76-2,4.41,4.41,0,0,1,.5,2.61Z"/><path class="cls-2" d="M59.12,18.46c.48,1,.25,1.81-.34,2.08s-1.32-.07-1.8-1.1a4.43,4.43,0,0,1,.08-2.66,4.36,4.36,0,0,1,2.06,1.68Z"/><path class="cls-2" d="M39.69,29.08c0,1.14-.55,1.74-1.2,1.73s-1.17-.62-1.15-1.76a4.37,4.37,0,0,1,1.2-2.38,4.43,4.43,0,0,1,1.15,2.41Z"/></g></g></svg>