<svg xmlns="http://www.w3.org/2000/svg" viewBox="0 0 113.29 73.69"><defs><style>.cls-1{fill:#e67f34;}.cls-2{fill:#f9d692;}</style></defs><g id="圖層_2" data-name="圖層 2"><g id="圖層_1-2" data-name="圖層 1"><path class="cls-1" d="M96.13,56.41C73.69,69,37.84,68.63,16,55.6,5.31,49.19,0,40.91,0,32.65a34.59,34.59,0,0,0,.33,5.76,33.19,33.19,0,0,0,.89,4.28,31.75,31.75,0,0,0,3.28,7.69,35.56,35.56,0,0,0,6.29,7.8,47.26,47.26,0,0,0,8,6,61.09,61.09,0,0,0,6.92,3.51A68.28,68.28,0,0,0,36.57,71.3a84.3,84.3,0,0,0,19.32,2.39,85.4,85.4,0,0,0,19.46-2c1.16-.27,2.71-.61,3.85-1,2.17-.67,5-1.64,7.17-2.43,1.12-.42,2.56-1.09,3.64-1.61S92.3,65.5,93.28,65c1.47-.86,3.42-2,4.78-3,1.57-1.16,3.56-2.85,5-4.17a24.38,24.38,0,0,0,2.2-2.35A54.29,54.29,0,0,0,108.5,51a32.86,32.86,0,0,0,4.79-18c0,8.53-5.76,17-17.16,23.44Z"/><path class="cls-2" d="M96.13,56.41C73.69,69,37.84,68.63,16,55.6S-5.26,21.8,17.17,9.21,75.46-3,97.27,10s21.29,33.8-1.14,46.39Z"/></g></g></svg>