<svg xmlns="http://www.w3.org/2000/svg" viewBox="0 0 126.74 85.61"><defs><style>.cls-1{fill:#efa10b;}.cls-2{fill:#ffdb4e;}</style></defs><g id="圖層_2" data-name="圖層 2"><g id="圖層_1-2" data-name="圖層 1"><path class="cls-1" d="M6.67,46.32v4.79s.7-1.46,6.13.49,1.76-7.21,1.76-7.21S9.06,44.39,6.67,46.32Z"/><path class="cls-1" d="M0,34.79V38s.15-.24,2.77-.62,3.3,2.64,3.3,2.64L6.67,34S3.77,32.52,0,34.79Z"/><path class="cls-1" d="M75.84,23.28l0,4.54c0-1.25-.83-2.54-2.51-3.5a13.38,13.38,0,0,0-12.12,0,4.15,4.15,0,0,0-2.43,3.43V23.17c0-1.24.81-2.48,2.44-3.44a13.43,13.43,0,0,1,12.13.05c1.67,1,2.51,2.24,2.51,3.5Z"/><path class="cls-1" d="M92.17,33l0-4.55A1.86,1.86,0,0,1,93.27,27v4.53A1.8,1.8,0,0,0,92.17,33Z"/><path class="cls-1" d="M57.63,44.11V39.56A1.89,1.89,0,0,1,58.76,38a5.61,5.61,0,0,1,5.11,0v4.53a5.58,5.58,0,0,0-5.11,0,1.92,1.92,0,0,0-1.12,1.53Z"/><path class="cls-1" d="M65,39.59v4.53a1.9,1.9,0,0,0-1.09-1.55V38A1.84,1.84,0,0,1,65,39.59Z"/><path class="cls-1" d="M91.32,49.91V45.36a3.29,3.29,0,0,1,2-2.68,10.07,10.07,0,0,1,9.28,0v4.54a10.16,10.16,0,0,0-9.28,0,3.3,3.3,0,0,0-2,2.7Z"/><path class="cls-1" d="M104.53,45.45V50a3.31,3.31,0,0,0-2-2.74V42.72a3.35,3.35,0,0,1,2,2.73Z"/><path class="cls-1" d="M53.11,47.09l0,4.51a3.31,3.31,0,0,0-2-2.71,10.42,10.42,0,0,0-9.36,0,3.25,3.25,0,0,0-1.91,2.7V47a3.3,3.3,0,0,1,1.92-2.7,10.43,10.43,0,0,1,9.35,0,3.3,3.3,0,0,1,2,2.72Z"/><path class="cls-1" d="M78.59,52.76v4.52a1.9,1.9,0,0,0-1.13-1.54,5.66,5.66,0,0,0-5.1,0l0-4.53a5.51,5.51,0,0,1,5.09,0,1.85,1.85,0,0,1,1.13,1.55Z"/><path class="cls-1" d="M71.24,57.26V52.73a1.9,1.9,0,0,1,1.12-1.52l0,4.53a1.86,1.86,0,0,0-1.11,1.52Z"/><polygon class="cls-1" points="126.74 46.28 126.73 50.83 102.51 64.89 102.52 60.37 126.74 46.28 126.74 46.28"/><path class="cls-1" d="M96.3,66.41l0-4.52a1.9,1.9,0,0,1,1.1-1.52,5.53,5.53,0,0,1,5.1,0v4.52a5.72,5.72,0,0,0-5.1,0,1.88,1.88,0,0,0-1.11,1.52Z"/><polygon class="cls-1" points="41.34 65.05 41.32 69.56 40.49 70.39 40.5 65.85 41.34 65.05 41.34 65.05"/><polygon class="cls-1" points="40.5 65.85 40.49 70.39 11.85 53.86 11.86 49.33 40.5 65.85 40.5 65.85"/><path class="cls-1" d="M73.42,66.41V71c0-1.29-.84-2.56-2.55-3.56a13.42,13.42,0,0,0-12.11,0c-1.66,1-2.48,2.23-2.48,3.48V66.38c0-1.27.82-2.51,2.48-3.47a13.39,13.39,0,0,1,12.11,0c1.72,1,2.55,2.26,2.55,3.54Z"/><path class="cls-1" d="M47.63,66.52v4.55a1.84,1.84,0,0,0-1.12-1.52,5.67,5.67,0,0,0-5.18,0l0-4.51a5.59,5.59,0,0,1,5.17,0c.76.44,1.14,1,1.12,1.52Z"/><polygon class="cls-1" points="97.36 63.34 97.35 67.89 76.31 80.11 76.33 75.59 97.36 63.34 97.36 63.34"/><polygon class="cls-1" points="66.86 81.09 66.86 85.61 45.1 73.06 45.12 68.53 66.86 81.09 66.86 81.09"/><path class="cls-2" d="M63.87,38a5.61,5.61,0,0,0-5.11,0c-1.47.84-1.47,2.17-.06,3A5.78,5.78,0,0,0,64,41c1.4-.82,1.34-2.16-.08-3Zm8.5,13.17c-1.49.85-1.49,2.18-.07,3a5.72,5.72,0,0,0,5.25,0c1.42-.83,1.42-2.16-.09-3a5.51,5.51,0,0,0-5.09,0Zm30.2-8.49a10.07,10.07,0,0,0-9.28,0c-2.62,1.51-2.61,3.89,0,5.41a10.33,10.33,0,0,0,9.36,0c2.53-1.49,2.45-3.9-.11-5.37ZM41.82,49.78a10.22,10.22,0,0,0,9.35,0c2.54-1.47,2.6-3.92,0-5.41a10.43,10.43,0,0,0-9.35,0c-2.62,1.52-2.54,4,0,5.44Zm19.51-23a13.2,13.2,0,0,0,12,0c3.33-1.93,3.32-5,0-7a13.43,13.43,0,0,0-12.13-.05c-3.32,1.94-3.22,5.1.13,7ZM58.8,69.88a13.24,13.24,0,0,0,12.11,0c3.33-1.9,3.38-5.08,0-7a13.39,13.39,0,0,0-12.11,0c-3.32,1.92-3.3,5,0,7Zm43.72-9.51a5.53,5.53,0,0,0-5.1,0c-1.48.85-1.48,2.17-.06,3l-21,12.24a5.55,5.55,0,0,0-5.11,0c-1.48.86-1.47,2.18,0,3l-4.31,2.49L45.12,68.53,46.54,68c1.47-.86,1.46-2.18,0-3a5.59,5.59,0,0,0-5.17,0l-.84.8L11.86,49.33c1.47-.88,1.47-2.18,0-3a5.62,5.62,0,0,0-5.17,0l16.51-9.59a10.42,10.42,0,0,0,9.36,0c2.54-1.46,2.52-3.94,0-5.42l34-19.76L93.27,27c-1.49.86-1.4,2.21,0,3a5.59,5.59,0,0,0,5.17,0l28.28,16.32L102.52,60.37Z"/><path class="cls-1" d="M69.17,11.74l0,4.54c0-1.25-.83-2.54-2.5-3.5a13.43,13.43,0,0,0-12.13,0,4.15,4.15,0,0,0-2.43,3.43V11.64c0-1.25.81-2.49,2.45-3.45a13.41,13.41,0,0,1,12.12.05c1.68,1,2.51,2.24,2.51,3.5Z"/><path class="cls-1" d="M85.5,21.46l0-4.55a1.86,1.86,0,0,1,1.08-1.49V20a1.82,1.82,0,0,0-1.09,1.51Z"/><path class="cls-1" d="M27.76,22.5V27a3.3,3.3,0,0,0-1.93-2.72V19.76a3.29,3.29,0,0,1,1.92,2.74Z"/><path class="cls-1" d="M51,32.57V28a1.87,1.87,0,0,1,1.12-1.51,5.55,5.55,0,0,1,5.11,0V31a5.58,5.58,0,0,0-5.11,0A1.92,1.92,0,0,0,51,32.57Z"/><path class="cls-1" d="M58.29,28.05v4.54A1.92,1.92,0,0,0,57.19,31V26.51a1.81,1.81,0,0,1,1.09,1.54Z"/><path class="cls-1" d="M84.65,38.37V33.83a3.29,3.29,0,0,1,2-2.69,10.16,10.16,0,0,1,9.28,0v4.55a10.16,10.16,0,0,0-9.28,0,3.32,3.32,0,0,0-2,2.7Z"/><path class="cls-1" d="M97.86,33.91v4.55a3.31,3.31,0,0,0-2-2.74V31.17a3.37,3.37,0,0,1,2,2.74Z"/><path class="cls-1" d="M46.44,35.55v4.51a3.33,3.33,0,0,0-2-2.71,10.4,10.4,0,0,0-9.35,0,3.25,3.25,0,0,0-1.92,2.7V35.5a3.31,3.31,0,0,1,1.92-2.7,10.43,10.43,0,0,1,9.35,0,3.3,3.3,0,0,1,2,2.72Z"/><path class="cls-1" d="M71.92,41.22v4.52a1.92,1.92,0,0,0-1.13-1.54,5.66,5.66,0,0,0-5.1,0l0-4.52a5.51,5.51,0,0,1,5.09,0,1.83,1.83,0,0,1,1.13,1.54Z"/><path class="cls-1" d="M64.56,45.72l0-4.53a1.87,1.87,0,0,1,1.12-1.51l0,4.52a1.88,1.88,0,0,0-1.12,1.52Z"/><polygon class="cls-1" points="120.07 34.74 120.06 39.29 95.84 53.35 95.85 48.83 120.07 34.74 120.07 34.74"/><path class="cls-1" d="M89.63,54.87l0-4.52a1.88,1.88,0,0,1,1.11-1.52,5.51,5.51,0,0,1,5.09,0v4.52a5.72,5.72,0,0,0-5.1,0,1.89,1.89,0,0,0-1.11,1.52Z"/><polygon class="cls-1" points="34.67 53.51 34.66 58.02 33.81 58.85 33.83 54.32 34.67 53.51 34.67 53.51"/><polygon class="cls-1" points="33.83 54.32 33.81 58.85 5.18 42.33 5.19 37.79 33.83 54.32 33.83 54.32"/><path class="cls-1" d="M66.75,54.87v4.55c0-1.29-.84-2.57-2.55-3.56a13.42,13.42,0,0,0-12.11,0c-1.66,1-2.48,2.23-2.48,3.48V54.84c0-1.27.83-2.51,2.48-3.47a13.36,13.36,0,0,1,12.11,0c1.72,1,2.55,2.26,2.55,3.53Z"/><path class="cls-1" d="M41,55v4.55A1.84,1.84,0,0,0,39.83,58a5.65,5.65,0,0,0-5.17,0V53.51a5.59,5.59,0,0,1,5.17,0c.76.44,1.14,1,1.12,1.52Z"/><polygon class="cls-1" points="90.7 51.81 90.68 56.36 69.64 68.58 69.66 64.05 90.7 51.81 90.7 51.81"/><path class="cls-1" d="M63.42,70.12l0-4.55a1.86,1.86,0,0,1,1.1-1.52,5.61,5.61,0,0,1,5.11,0l0,4.52a5.72,5.72,0,0,0-5.1,0,2,2,0,0,0-1.12,1.55Z"/><polygon class="cls-1" points="60.19 69.55 60.19 74.07 38.44 61.52 38.45 56.99 60.19 69.55 60.19 69.55"/><polygon class="cls-1" points="64.51 67.06 64.49 71.57 60.19 74.07 60.19 69.55 64.51 67.06 64.51 67.06"/><path class="cls-2" d="M57.2,26.51a5.55,5.55,0,0,0-5.11,0c-1.47.84-1.47,2.16-.06,3a5.85,5.85,0,0,0,5.25,0c1.4-.83,1.34-2.17-.08-3Zm8.5,13.17c-1.49.84-1.49,2.17-.06,3a5.7,5.7,0,0,0,5.24,0c1.42-.83,1.42-2.16-.09-3a5.51,5.51,0,0,0-5.09,0Zm30.2-8.51a10.16,10.16,0,0,0-9.28,0C84,32.66,84,35,86.65,36.55a10.33,10.33,0,0,0,9.36,0c2.53-1.48,2.45-3.89-.11-5.38ZM35.15,38.24a10.19,10.19,0,0,0,9.35,0c2.54-1.47,2.61-3.91,0-5.41a10.43,10.43,0,0,0-9.35,0c-2.62,1.53-2.54,4,0,5.44Zm19.51-23a13.2,13.2,0,0,0,12,0c3.33-1.93,3.32-5,0-7a13.41,13.41,0,0,0-12.12-.05c-3.32,1.94-3.23,5.1.12,7ZM52.13,58.34a13.27,13.27,0,0,0,12.11,0c3.33-1.91,3.38-5.09,0-7a13.36,13.36,0,0,0-12.11,0c-3.32,1.92-3.29,5.05,0,7Zm43.72-9.51a5.51,5.51,0,0,0-5.09,0c-1.49.85-1.49,2.18-.06,3l-21,12.24a5.61,5.61,0,0,0-5.11,0c-1.48.87-1.46,2.18,0,3l-4.32,2.49L38.45,57l1.42-.49c1.47-.86,1.46-2.17,0-3a5.59,5.59,0,0,0-5.17,0l-.84.81L5.19,37.79c1.47-.88,1.47-2.18,0-3a5.62,5.62,0,0,0-5.17,0l16.51-9.6a10.44,10.44,0,0,0,9.37,0c2.52-1.46,2.51-3.94,0-5.42L59.89,0,86.6,15.42c-1.48.86-1.4,2.21,0,3a5.59,5.59,0,0,0,5.17,0l28.28,16.32L95.85,48.83Z"/></g></g></svg>