<svg xmlns="http://www.w3.org/2000/svg" viewBox="0 0 111.87 52.23"><defs><style>.cls-1{fill:#304903;}.cls-2{fill:#a8c178;}.cls-3{fill:#406508;}.cls-4{fill:#bfdb91;}</style></defs><g id="圖層_2" data-name="圖層 2"><g id="圖層_1-2" data-name="圖層 1"><path class="cls-1" d="M76.2,16.81l-.14.12a14.67,14.67,0,0,1-2.71,2A24.79,24.79,0,0,1,65,21.76c-6.39,1-13.56.14-18.65-2.72l-.17-.1c-.19-.11-.38-.22-.55-.34a14.35,14.35,0,0,1-2.27-1.72A8.1,8.1,0,0,1,40.55,11l0,5.74a8.07,8.07,0,0,0,2.86,5.87,15.27,15.27,0,0,0,2.25,1.72c.17.11.36.21.55.32l.17.1c5.1,2.88,12.26,3.78,18.65,2.74a24.66,24.66,0,0,0,8.32-2.84,15.68,15.68,0,0,0,2.72-2l.14-.14a8,8,0,0,0,2.66-5.62c0-1.72,0-4,0-5.73a8,8,0,0,1-2.67,5.62Z"/><path class="cls-2" d="M72.62,12.31c.7.41,1,1,.63,1.62l-.51.66c-.89,1.11-3.32,1.19-4.79.35l-2.77-1.6c-1.48-.86-1-1.59,1.15-1.56h3.84a4.79,4.79,0,0,1,2.45.52Z"/><path class="cls-2" d="M54.8,12.05c.48.29.31.75-.62,1.29L51.5,14.89a4.66,4.66,0,0,1-4.25.21,1.81,1.81,0,0,1-.55-.47l-.51-.74c-.72-1.15.88-2.14,3.05-2.14h3.84a3.94,3.94,0,0,1,1.72.3Z"/><path class="cls-2" d="M66.36,15.86c1.47.85,1.35,2.26-.57,2.78l-1.15.3a4,4,0,0,1-2.78-.37,1.63,1.63,0,0,1-1-1.41V14.93c-.07-1.22,1.21-1.52,2.68-.67l2.77,1.6Z"/><path class="cls-2" d="M58.07,13.93a1.17,1.17,0,0,1,.53,1v2.23c0,1.22-1.77,2.15-3.76,1.74l-1.22-.26a3.5,3.5,0,0,1-.79-.32c-1.11-.64-1-1.72.33-2.46l2.68-1.56a2.38,2.38,0,0,1,2.22-.37Z"/><path class="cls-3" d="M47.36,18.27c6.87,4,17.93,3.92,24.77,0S78.93,7.89,72,3.92,54.1,0,47.35,3.92s-6.85,10.38,0,14.35Zm25.82-15c7.51,4.34,7.57,11.38.17,15.69s-19.63,4.33-27.14,0S38.67,7.55,46.13,3.21s19.54-4.29,27.05,0Z"/><path class="cls-2" d="M66.57,3.87c1.11.64.94,1.72-.33,2.46L63.56,7.89a2.32,2.32,0,0,1-2.23.36,1.15,1.15,0,0,1-.53-1l0-2.22c0-1.26,1.73-2.19,3.71-1.79l1.28.3a3.33,3.33,0,0,1,.8.32Z"/><path class="cls-2" d="M72.15,7.09a2.28,2.28,0,0,1,.55.46l.45.71c.71,1.15-.88,2.15-3,2.19H66.32a3.66,3.66,0,0,1-1.71-.31c-.49-.28-.33-.73.61-1.28L67.91,7.3a4.61,4.61,0,0,1,4.24-.21Z"/><path class="cls-2" d="M54.23,8.85c1.47.85,1,1.59-1.15,1.56H49.24a5.11,5.11,0,0,1-2.48-.56c-.69-.39-1-1-.61-1.59l.5-.67c.91-1.11,3.32-1.19,4.81-.33l2.77,1.59Z"/><path class="cls-4" d="M67.91,7.3,65.22,8.85c-.94.55-1.1,1-.61,1.28a3.66,3.66,0,0,0,1.71.31h3.84c2.11,0,3.7-1,3-2.19l-.45-.71a2.28,2.28,0,0,0-.55-.46,4.61,4.61,0,0,0-4.24.21ZM54.85,18.9c2,.41,3.71-.52,3.76-1.74V14.93a1.17,1.17,0,0,0-.53-1,2.38,2.38,0,0,0-2.22.37l-2.68,1.56c-1.29.74-1.44,1.82-.33,2.46a3.5,3.5,0,0,0,.79.32l1.22.26Zm-3.35-4,2.68-1.55c.93-.54,1.1-1,.62-1.29a3.94,3.94,0,0,0-1.72-.3H49.24c-2.17,0-3.77,1-3.05,2.14l.51.74a1.81,1.81,0,0,0,.55.47,4.66,4.66,0,0,0,4.25-.21Zm12-7,2.69-1.56c1.27-.74,1.44-1.82.33-2.46a3.33,3.33,0,0,0-.8-.32l-1.28-.3c-2-.41-3.71.53-3.71,1.79l0,2.22a1.15,1.15,0,0,0,.53,1,2.3,2.3,0,0,0,2.22-.36Zm-16.79,2a5.11,5.11,0,0,0,2.48.56h3.84c2.1,0,2.62-.71,1.15-1.56L51.46,7.26c-1.49-.86-3.9-.78-4.81.33l-.5.67c-.37.62-.08,1.2.61,1.59Zm19,8.79c1.92-.52,2-1.93.57-2.78l-2.77-1.6c-1.47-.85-2.75-.55-2.68.67v2.23a1.63,1.63,0,0,0,1,1.41,4,4,0,0,0,2.78.37l1.15-.3ZM53.61,3.55c-2,.56-2,1.93-.57,2.78l2.78,1.6c1.47.85,2.74.56,2.68-.67l0-2.22a1.7,1.7,0,0,0-1-1.44,4.06,4.06,0,0,0-2.77-.35l-1.14.3Zm19,8.76a4.79,4.79,0,0,0-2.45-.52H66.33c-2.12,0-2.63.7-1.15,1.56L68,14.94c1.47.84,3.9.76,4.79-.35l.51-.66c.37-.62.07-1.21-.63-1.62ZM72,3.92c6.89,4,6.85,10.38.09,14.31s-17.9,4-24.77,0-6.84-10.38,0-14.35S65.18,0,72,3.92Z"/><path class="cls-2" d="M57.52,3.6a1.7,1.7,0,0,1,1,1.44l0,2.22c.06,1.23-1.21,1.52-2.68.67L53,6.33c-1.47-.85-1.41-2.22.57-2.78l1.14-.3a4.06,4.06,0,0,1,2.77.35Z"/><path class="cls-1" d="M35.68,27.11l-.15.13a14.62,14.62,0,0,1-2.72,2,24.64,24.64,0,0,1-8.32,2.83c-6.38,1-13.55.14-18.63-2.73l-.18-.1a5,5,0,0,1-.55-.33,14.25,14.25,0,0,1-2.26-1.72A8.07,8.07,0,0,1,0,21.33l0,5.74a8.12,8.12,0,0,0,2.86,5.87,15.24,15.24,0,0,0,2.25,1.71l.55.33.17.09c5.1,2.88,12.26,3.79,18.64,2.74A24.63,24.63,0,0,0,32.8,35a15.11,15.11,0,0,0,2.71-2l.14-.14a7.82,7.82,0,0,0,2.65-5.61c0-1.72,0-4,0-5.74a7.91,7.91,0,0,1-2.64,5.62Z"/><path class="cls-2" d="M32.08,22.62c.71.4,1,1,.64,1.62l-.51.66c-.88,1.11-3.32,1.19-4.8.34l-2.76-1.59c-1.47-.86-1-1.6,1.14-1.56h3.84a4.86,4.86,0,0,1,2.45.53Z"/><path class="cls-2" d="M14.27,22.36c.48.29.31.75-.62,1.29L11,25.2a4.63,4.63,0,0,1-4.24.2,1.8,1.8,0,0,1-.56-.46l-.51-.74c-.72-1.15.9-2.15,3-2.15h3.86a3.75,3.75,0,0,1,1.71.31Z"/><path class="cls-2" d="M25.82,26.17c1.47.84,1.35,2.26-.56,2.78l-1.16.29a4.07,4.07,0,0,1-2.78-.36,1.61,1.61,0,0,1-.93-1.41V25.24c-.08-1.22,1.2-1.52,2.69-.67l2.75,1.6Z"/><path class="cls-2" d="M17.54,24.24a1.16,1.16,0,0,1,.53,1v2.23c0,1.21-1.76,2.15-3.75,1.73L13.1,29a3.8,3.8,0,0,1-.8-.32c-1.09-.65-.94-1.72.33-2.46l2.68-1.56a2.41,2.41,0,0,1,2.23-.37Z"/><path class="cls-3" d="M6.82,28.58c6.88,4,18,3.92,24.77,0s6.79-10.33-.08-14.3-17.93-3.93-24.7,0S0,24.61,6.82,28.58Zm25.82-15c7.53,4.34,7.57,11.38.17,15.68s-19.63,4.34-27.13,0-7.55-11.38-.09-15.72,19.55-4.29,27.05,0Z"/><path class="cls-2" d="M26,14.18c1.11.64.95,1.72-.34,2.45L23,18.2a2.29,2.29,0,0,1-2.22.36,1.1,1.1,0,0,1-.52-1l0-2.22c0-1.27,1.72-2.19,3.71-1.79l1.28.29a3.32,3.32,0,0,1,.8.33Z"/><path class="cls-2" d="M31.62,17.4a2.28,2.28,0,0,1,.55.46l.45.71c.72,1.15-.88,2.15-3,2.19H25.79a3.61,3.61,0,0,1-1.7-.31c-.5-.28-.34-.73.6-1.28l2.68-1.56a4.65,4.65,0,0,1,4.25-.2Z"/><path class="cls-2" d="M13.69,19.16c1.48.85,1,1.59-1.15,1.56H8.7a5.1,5.1,0,0,1-2.47-.56c-.68-.39-1-1-.61-1.59l.51-.67c.89-1.11,3.32-1.18,4.8-.33l2.76,1.59Z"/><path class="cls-4" d="M27.37,17.6l-2.68,1.56c-.94.55-1.1,1-.6,1.28a3.61,3.61,0,0,0,1.7.31h3.83c2.12,0,3.72-1,3-2.19l-.45-.71a2.28,2.28,0,0,0-.55-.46,4.65,4.65,0,0,0-4.25.2Zm-13,11.6c2,.42,3.72-.52,3.75-1.73V25.24a1.16,1.16,0,0,0-.53-1,2.41,2.41,0,0,0-2.23.37l-2.68,1.56c-1.27.74-1.42,1.81-.33,2.46a3.93,3.93,0,0,0,.79.32l1.23.25ZM11,25.2l2.68-1.55c.94-.54,1.11-1,.63-1.29a3.75,3.75,0,0,0-1.71-.31H8.7c-2.15,0-3.77,1-3,2.15l.51.74a1.8,1.8,0,0,0,.56.46A4.63,4.63,0,0,0,11,25.2ZM23,18.2l2.68-1.57c1.29-.73,1.45-1.81.34-2.45a3.32,3.32,0,0,0-.8-.33L24,13.56c-2-.41-3.71.52-3.71,1.79l0,2.22a1.1,1.1,0,0,0,.52,1A2.29,2.29,0,0,0,23,18.2Zm-16.79,2a5.1,5.1,0,0,0,2.47.56h3.84c2.11,0,2.63-.71,1.15-1.56l-2.76-1.59c-1.48-.85-3.91-.78-4.8.33l-.51.67c-.37.62-.07,1.2.61,1.59Zm19,8.79c1.91-.52,2-1.94.56-2.78l-2.75-1.6c-1.49-.85-2.77-.55-2.69.67v2.23a1.61,1.61,0,0,0,.93,1.41,4.07,4.07,0,0,0,2.78.36L25.26,29ZM13.08,13.85c-2,.56-2,1.94-.57,2.79l2.77,1.6c1.48.85,2.76.56,2.68-.67V15.35a1.66,1.66,0,0,0-1-1.44,4,4,0,0,0-2.76-.35l-1.15.29Zm19,8.77a4.86,4.86,0,0,0-2.45-.53H25.79c-2.12,0-2.61.7-1.14,1.56l2.76,1.59c1.48.85,3.92.77,4.8-.34l.51-.66c.37-.62.07-1.22-.64-1.62Zm-.57-8.39c6.87,4,6.86,10.38.08,14.3s-17.89,4-24.77,0S0,18.2,6.81,14.23s17.84-4,24.7,0Z"/><path class="cls-2" d="M17,13.91a1.66,1.66,0,0,1,1,1.44v2.22c.08,1.23-1.2,1.52-2.68.67l-2.77-1.6c-1.47-.85-1.4-2.23.57-2.79l1.15-.29a4,4,0,0,1,2.76.35Z"/><path class="cls-1" d="M109.2,30.81l-.14.12a14.67,14.67,0,0,1-2.71,2A24.79,24.79,0,0,1,98,35.76c-6.39,1.05-13.56.14-18.65-2.72l-.17-.1c-.19-.11-.38-.22-.55-.34a14.35,14.35,0,0,1-2.27-1.72A8.1,8.1,0,0,1,73.55,25l0,5.74a8.07,8.07,0,0,0,2.86,5.87,15.27,15.27,0,0,0,2.25,1.72c.17.11.36.21.55.32l.17.1c5.1,2.88,12.26,3.78,18.65,2.74a24.66,24.66,0,0,0,8.32-2.84,15.68,15.68,0,0,0,2.72-2l.14-.14a8,8,0,0,0,2.66-5.62c0-1.72,0-4,0-5.73a8,8,0,0,1-2.67,5.62Z"/><path class="cls-2" d="M105.62,26.31c.7.41,1,1,.63,1.62l-.51.66c-.89,1.11-3.32,1.19-4.79.35l-2.77-1.6c-1.48-.86-1-1.59,1.15-1.56h3.84a4.79,4.79,0,0,1,2.45.52Z"/><path class="cls-2" d="M87.8,26.05c.48.29.31.75-.62,1.29L84.5,28.89a4.66,4.66,0,0,1-4.25.21,1.81,1.81,0,0,1-.55-.47l-.51-.74c-.72-1.15.88-2.14,3-2.14h3.84a3.94,3.94,0,0,1,1.72.3Z"/><path class="cls-2" d="M99.36,29.86c1.47.85,1.35,2.26-.57,2.78l-1.15.3a4,4,0,0,1-2.78-.37,1.63,1.63,0,0,1-1-1.41V28.93c-.07-1.22,1.21-1.52,2.68-.67l2.77,1.6Z"/><path class="cls-2" d="M91.07,27.93a1.17,1.17,0,0,1,.53,1v2.23c0,1.22-1.77,2.15-3.76,1.74l-1.22-.26a3.5,3.5,0,0,1-.79-.32c-1.11-.64-1-1.72.33-2.46l2.68-1.56a2.38,2.38,0,0,1,2.22-.37Z"/><path class="cls-3" d="M80.36,32.27c6.87,4,17.93,3.92,24.77,0s6.8-10.34-.09-14.31S87.1,14,80.35,17.92s-6.85,10.38,0,14.35Zm25.82-15c7.51,4.34,7.57,11.38.17,15.69s-19.63,4.33-27.14,0-7.54-11.39-.08-15.73,19.54-4.29,27.05,0Z"/><path class="cls-2" d="M99.57,17.87c1.11.64.94,1.72-.33,2.46l-2.68,1.56a2.32,2.32,0,0,1-2.23.36,1.15,1.15,0,0,1-.53-1l0-2.22c0-1.26,1.73-2.19,3.71-1.79l1.28.3a3.33,3.33,0,0,1,.8.32Z"/><path class="cls-2" d="M105.15,21.09a2.28,2.28,0,0,1,.55.46l.45.71c.71,1.15-.88,2.15-3,2.19H99.32a3.66,3.66,0,0,1-1.71-.31c-.49-.28-.33-.73.61-1.28l2.69-1.55a4.61,4.61,0,0,1,4.24-.21Z"/><path class="cls-2" d="M87.23,22.85c1.47.85,1,1.59-1.15,1.56H82.24a5.11,5.11,0,0,1-2.48-.56c-.69-.39-1-1-.61-1.59l.5-.67c.91-1.11,3.32-1.19,4.81-.33l2.77,1.59Z"/><path class="cls-4" d="M100.91,21.3l-2.69,1.55c-.94.55-1.1,1-.61,1.28a3.66,3.66,0,0,0,1.71.31h3.84c2.11,0,3.7-1,3-2.19l-.45-.71a2.28,2.28,0,0,0-.55-.46,4.61,4.61,0,0,0-4.24.21ZM87.85,32.9c2,.41,3.71-.52,3.76-1.74V28.93a1.17,1.17,0,0,0-.53-1,2.38,2.38,0,0,0-2.22.37l-2.68,1.56c-1.29.74-1.44,1.82-.33,2.46a3.5,3.5,0,0,0,.79.32l1.22.26Zm-3.35-4,2.68-1.55c.93-.54,1.1-1,.62-1.29a3.94,3.94,0,0,0-1.72-.3H82.24c-2.17,0-3.77,1-3,2.14l.51.74a1.81,1.81,0,0,0,.55.47,4.66,4.66,0,0,0,4.25-.21Zm12-7,2.69-1.56c1.27-.74,1.44-1.82.33-2.46a3.33,3.33,0,0,0-.8-.32l-1.28-.3c-2-.41-3.71.53-3.71,1.79l0,2.22a1.15,1.15,0,0,0,.53,1,2.3,2.3,0,0,0,2.22-.36Zm-16.79,2a5.11,5.11,0,0,0,2.48.56h3.84c2.1,0,2.62-.71,1.15-1.56l-2.77-1.59c-1.49-.86-3.9-.78-4.81.33l-.5.67c-.37.62-.08,1.2.61,1.59Zm19,8.79c1.92-.52,2-1.93.57-2.78l-2.77-1.6c-1.47-.85-2.75-.55-2.68.67v2.23a1.63,1.63,0,0,0,1,1.41,4,4,0,0,0,2.78.37l1.15-.3ZM86.61,17.55c-2,.56-2,1.93-.57,2.78l2.78,1.6c1.47.85,2.74.56,2.68-.67l0-2.22a1.7,1.7,0,0,0-1-1.44,4.06,4.06,0,0,0-2.77-.35l-1.14.3Zm19,8.76a4.79,4.79,0,0,0-2.45-.52H99.33c-2.12,0-2.63.7-1.15,1.56l2.77,1.6c1.47.84,3.9.76,4.79-.35l.51-.66c.37-.62.07-1.21-.63-1.62ZM105,17.92c6.89,4,6.85,10.38.09,14.31s-17.9,4-24.77,0-6.84-10.38,0-14.35,17.83-4,24.69,0Z"/><path class="cls-2" d="M90.52,17.6a1.7,1.7,0,0,1,1,1.44l0,2.22c.06,1.23-1.21,1.52-2.68.67L86,20.33c-1.47-.85-1.41-2.22.57-2.78l1.14-.3a4.06,4.06,0,0,1,2.77.35Z"/><path class="cls-1" d="M69.68,41.11l-.15.13a14.62,14.62,0,0,1-2.72,2,24.64,24.64,0,0,1-8.32,2.83c-6.38,1-13.55.14-18.63-2.73l-.18-.1a5,5,0,0,1-.55-.33,14.25,14.25,0,0,1-2.26-1.72A8.07,8.07,0,0,1,34,35.33l0,5.74a8.12,8.12,0,0,0,2.86,5.87,15.24,15.24,0,0,0,2.25,1.71l.55.33.17.09c5.1,2.88,12.26,3.79,18.64,2.74A24.63,24.63,0,0,0,66.8,49a15.11,15.11,0,0,0,2.71-2l.14-.14a7.82,7.82,0,0,0,2.65-5.61c0-1.72,0-4,0-5.74a7.91,7.91,0,0,1-2.64,5.62Z"/><path class="cls-2" d="M66.08,36.62c.71.4,1,1,.64,1.62l-.51.66c-.88,1.11-3.32,1.19-4.8.34l-2.76-1.59c-1.47-.86-1-1.6,1.14-1.56h3.84a4.86,4.86,0,0,1,2.45.53Z"/><path class="cls-2" d="M48.27,36.36c.48.29.31.75-.62,1.29L45,39.2a4.63,4.63,0,0,1-4.24.2,1.8,1.8,0,0,1-.56-.46l-.51-.74c-.72-1.15.9-2.15,3.05-2.15h3.86a3.75,3.75,0,0,1,1.71.31Z"/><path class="cls-2" d="M59.82,40.17c1.47.84,1.35,2.26-.56,2.78l-1.16.29a4.07,4.07,0,0,1-2.78-.36,1.61,1.61,0,0,1-.93-1.41V39.24c-.08-1.22,1.2-1.52,2.69-.67l2.75,1.6Z"/><path class="cls-2" d="M51.54,38.24a1.16,1.16,0,0,1,.53,1v2.23c0,1.21-1.76,2.15-3.75,1.73L47.1,43a3.8,3.8,0,0,1-.8-.32c-1.09-.65-.94-1.72.33-2.46l2.68-1.56a2.41,2.41,0,0,1,2.23-.37Z"/><path class="cls-3" d="M40.82,42.58c6.88,4,18,3.92,24.77,0s6.79-10.33-.08-14.3-17.93-3.93-24.7,0-6.85,10.38,0,14.35Zm25.82-15c7.53,4.34,7.57,11.38.17,15.68s-19.63,4.34-27.13,0-7.55-11.38-.09-15.72,19.55-4.29,27.05,0Z"/><path class="cls-2" d="M60,28.18c1.11.64,1,1.72-.34,2.45L57,32.2a2.29,2.29,0,0,1-2.22.36,1.1,1.1,0,0,1-.52-1l0-2.22c0-1.27,1.72-2.19,3.71-1.79l1.28.29a3.32,3.32,0,0,1,.8.33Z"/><path class="cls-2" d="M65.62,31.4a2.28,2.28,0,0,1,.55.46l.45.71c.72,1.15-.88,2.15-3,2.19H59.79a3.61,3.61,0,0,1-1.7-.31c-.5-.28-.34-.73.6-1.28l2.68-1.56a4.65,4.65,0,0,1,4.25-.2Z"/><path class="cls-2" d="M47.69,33.16c1.48.85,1,1.59-1.15,1.56H42.7a5.1,5.1,0,0,1-2.47-.56c-.68-.39-1-1-.61-1.59l.51-.67c.89-1.11,3.32-1.18,4.8-.33l2.76,1.59Z"/><path class="cls-4" d="M61.37,31.6l-2.68,1.56c-.94.55-1.1,1-.6,1.28a3.61,3.61,0,0,0,1.7.31h3.83c2.12,0,3.72-1,3-2.19l-.45-.71a2.28,2.28,0,0,0-.55-.46,4.65,4.65,0,0,0-4.25.2Zm-13,11.6c2,.42,3.72-.52,3.75-1.73V39.24a1.16,1.16,0,0,0-.53-1,2.41,2.41,0,0,0-2.23.37l-2.68,1.56c-1.27.74-1.42,1.81-.33,2.46a3.93,3.93,0,0,0,.79.32l1.23.25ZM45,39.2l2.68-1.55c.94-.54,1.11-1,.63-1.29a3.75,3.75,0,0,0-1.71-.31H42.7c-2.15,0-3.77,1-3.05,2.15l.51.74a1.8,1.8,0,0,0,.56.46A4.63,4.63,0,0,0,45,39.2ZM57,32.2l2.68-1.57c1.29-.73,1.45-1.81.34-2.45a3.32,3.32,0,0,0-.8-.33L58,27.56c-2-.41-3.71.52-3.71,1.79l0,2.22a1.1,1.1,0,0,0,.52,1A2.29,2.29,0,0,0,57,32.2Zm-16.79,2a5.1,5.1,0,0,0,2.47.56h3.84c2.11,0,2.63-.71,1.15-1.56l-2.76-1.59c-1.48-.85-3.91-.78-4.8.33l-.51.67c-.37.62-.07,1.2.61,1.59Zm19,8.79c1.91-.52,2-1.94.56-2.78l-2.75-1.6c-1.49-.85-2.77-.55-2.69.67v2.23a1.61,1.61,0,0,0,.93,1.41,4.07,4.07,0,0,0,2.78.36L59.26,43ZM47.08,27.85c-2,.56-2,1.94-.57,2.79l2.77,1.6c1.48.85,2.76.56,2.68-.67V29.35a1.66,1.66,0,0,0-1-1.44,4,4,0,0,0-2.76-.35l-1.15.29Zm19,8.77a4.86,4.86,0,0,0-2.45-.53H59.79c-2.12,0-2.61.7-1.14,1.56l2.76,1.59c1.48.85,3.92.77,4.8-.34l.51-.66c.37-.62.07-1.22-.64-1.62Zm-.57-8.39c6.87,4,6.86,10.38.08,14.3s-17.89,4-24.77,0S34,32.2,40.81,28.23s17.84-4,24.7,0Z"/><path class="cls-2" d="M51,27.91a1.66,1.66,0,0,1,1,1.44v2.22c.08,1.23-1.2,1.52-2.68.67l-2.77-1.6c-1.47-.85-1.4-2.23.57-2.79l1.15-.29a4,4,0,0,1,2.76.35Z"/></g></g></svg>