<svg xmlns="http://www.w3.org/2000/svg" viewBox="0 0 126.37 79.26"><defs><style>.cls-1{fill:#d38c8c;}.cls-2{fill:#fccdcd;}</style></defs><g id="圖層_2" data-name="圖層 2"><g id="圖層_1-2" data-name="圖層 1"><path class="cls-1" d="M126.37,37.18a6.54,6.54,0,0,1-.51,1.84,5.16,5.16,0,0,0-2.18-2.46L70.75,6.42a15.26,15.26,0,0,0-15.09,0l-53,30.17A5.21,5.21,0,0,0,.5,39,6.67,6.67,0,0,1,0,37.18L.15,40a5.25,5.25,0,0,0,2.51,5.8L60.11,78.57a5.29,5.29,0,0,0,5.2,0l58.35-32.84a5.23,5.23,0,0,0,2.55-5.65Z"/><path class="cls-2" d="M2.66,41.33,60.11,74.14a5.27,5.27,0,0,0,5.2,0l58.35-32.85a5.27,5.27,0,0,0,0-9.17L70.75,2A15.22,15.22,0,0,0,55.66,2l-53,30.17A5.27,5.27,0,0,0,2.66,41.33Z"/></g></g></svg>