<svg xmlns="http://www.w3.org/2000/svg" xmlns:xlink="http://www.w3.org/1999/xlink" viewBox="0 0 364.74 736.05"><defs><style>.cls-1{fill:#00000c;}.cls-2{fill:url(#linear-gradient);}.cls-3{fill:url(#linear-gradient-2);}.cls-4{fill:url(#linear-gradient-3);}.cls-5{fill:url(#linear-gradient-4);}.cls-6{fill:url(#linear-gradient-5);}.cls-7{fill:url(#linear-gradient-6);}.cls-8{fill:url(#linear-gradient-7);}.cls-9{fill:url(#linear-gradient-8);}.cls-10{fill:url(#linear-gradient-9);}.cls-11{fill:url(#linear-gradient-10);}.cls-12{fill:url(#linear-gradient-11);}</style><linearGradient id="linear-gradient" x1="1.38" y1="367.94" x2="6.73" y2="367.94" gradientUnits="userSpaceOnUse"><stop offset="0" stop-color="#666"/><stop offset="1"/></linearGradient><linearGradient id="linear-gradient-2" x1="358.86" y1="367.97" x2="364.16" y2="367.97" gradientUnits="userSpaceOnUse"><stop offset="0"/><stop offset="1" stop-color="#666"/></linearGradient><linearGradient id="linear-gradient-3" x1="182.37" y1="734.67" x2="182.37" y2="692.34" gradientUnits="userSpaceOnUse"><stop offset="0" stop-color="#959595"/><stop offset="1"/></linearGradient><linearGradient id="linear-gradient-4" x1="182.37" y1="41.79" x2="182.37" y2="-11.05" gradientUnits="userSpaceOnUse"><stop offset="0"/><stop offset="1" stop-color="gray"/></linearGradient><linearGradient id="linear-gradient-5" x1="342.19" y1="368.21" x2="355.06" y2="368.21" gradientUnits="userSpaceOnUse"><stop offset="0" stop-color="#f1f1f1"/><stop offset="0" stop-color="#f0f0f0"/><stop offset="0.14" stop-color="#b7b7b7"/><stop offset="0.27" stop-color="#888"/><stop offset="0.4" stop-color="#636363"/><stop offset="0.51" stop-color="#494949"/><stop offset="0.62" stop-color="#393939"/><stop offset="0.7" stop-color="#333"/></linearGradient><linearGradient id="linear-gradient-6" x1="17.06" y1="706.6" x2="347.69" y2="706.6" gradientUnits="userSpaceOnUse"><stop offset="0" stop-color="#1a1a1a"/><stop offset="0.12" stop-color="#454545"/><stop offset="0.23" stop-color="#666"/><stop offset="0.34" stop-color="#7e7e7e"/><stop offset="0.44" stop-color="#8d8d8d"/><stop offset="0.52" stop-color="#929292"/><stop offset="0.59" stop-color="#8b8b8b"/><stop offset="0.7" stop-color="#767676"/><stop offset="0.82" stop-color="#545454"/><stop offset="0.97" stop-color="#252525"/><stop offset="1" stop-color="#1a1a1a"/></linearGradient><linearGradient id="linear-gradient-7" x1="17.06" y1="29.87" x2="355.09" y2="29.87" xlink:href="#linear-gradient-6"/><linearGradient id="linear-gradient-8" x1="9.67" y1="367.99" x2="17.31" y2="367.99" gradientUnits="userSpaceOnUse"><stop offset="0" stop-color="#c8c8c8"/><stop offset="0.21" stop-color="#a0a0a0"/><stop offset="0.59" stop-color="#5d5d5d"/><stop offset="0.86" stop-color="#343434"/><stop offset="1" stop-color="#242424"/></linearGradient><linearGradient id="linear-gradient-9" x1="342.16" y1="368.25" x2="355.06" y2="368.25" gradientUnits="userSpaceOnUse"><stop offset="0" stop-color="#242424"/><stop offset="0.14" stop-color="#343434"/><stop offset="0.41" stop-color="#5d5d5d"/><stop offset="0.79" stop-color="#a0a0a0"/><stop offset="1" stop-color="#c8c8c8"/></linearGradient><linearGradient id="linear-gradient-10" x1="160.07" y1="28.11" x2="202.44" y2="28.11" gradientUnits="userSpaceOnUse"><stop offset="0" stop-color="#333"/><stop offset="0.09" stop-color="#2b2b2b"/><stop offset="0.29" stop-color="#1e1e1e"/><stop offset="0.48" stop-color="#1a1a1a"/><stop offset="0.79" stop-color="#1c1c1c"/><stop offset="0.9" stop-color="#232323"/><stop offset="0.98" stop-color="#2e2e2e"/><stop offset="1" stop-color="#333"/></linearGradient><linearGradient id="linear-gradient-11" x1="-62.02" y1="123.58" x2="426.74" y2="612.35" gradientUnits="userSpaceOnUse"><stop offset="0" stop-color="#f2f3f4"/><stop offset="0.48" stop-color="#eeeeef"/><stop offset="1" stop-color="#e2e2e2"/></linearGradient></defs><g id="圖層_2" data-name="圖層 2"><g id="object"><path class="cls-1" d="M315.12,0H49.62A49.63,49.63,0,0,0,0,49.62V686.43a49.63,49.63,0,0,0,49.62,49.62h265.5a49.63,49.63,0,0,0,49.62-49.62V49.62A49.63,49.63,0,0,0,315.12,0Zm48.24,681.82A48.09,48.09,0,0,1,361,696.64c-.11.36-.23.72-.36,1.07s-.25.71-.39,1.06-.19.54-.3.79c-.31.79-.65,1.56-1,2.33-.15.34-.31.68-.48,1s-.46.93-.7,1.39-.33.62-.5.92-.36.65-.55,1c-.52.88-1.07,1.76-1.65,2.61-.19.27-.37.55-.57.81s-.42.6-.65.9-.43.59-.66.88-.45.58-.69.87-.47.57-.72.85c-.47.57-1,1.12-1.48,1.65-.77.83-1.57,1.63-2.41,2.42l-.75.68c-.58.51-1.17,1-1.77,1.51l-.79.61c-.88.69-1.78,1.33-2.7,1.95l-.93.61c-.63.4-1.26.78-1.91,1.15-.32.19-.64.37-1,.53-1,.57-2.1,1.11-3.18,1.59l-.86.37c-.34.16-.68.3-1,.44L332,727c-.79.3-1.58.57-2.38.82l-.85.26c-1.05.31-2.12.59-3.21.83l-1.14.24-1.22.22c-.74.13-1.5.24-2.26.33h0l-.44,0-.32,0H320c.68-.07,1.36-.16,2-.27l1-.18c.34-.05.67-.13,1-.19,1-.2,2-.45,2.94-.72.32-.08.64-.18,1-.29.63-.19,1.26-.4,1.88-.62.94-.34,1.86-.71,2.77-1.11.3-.12.6-.25.9-.4l.88-.43c.59-.29,1.17-.59,1.75-.91s1.14-.64,1.7-1l1.5-1,.15-.1c.81-.56,1.6-1.13,2.37-1.72.26-.2.52-.4.77-.61.72-.58,1.42-1.19,2.1-1.82a43.44,43.44,0,0,0,4.65-5c.2-.24.4-.51.6-.77a44.44,44.44,0,0,0,5.16-8.79c.22-.49.43-1,.62-1.52a42.56,42.56,0,0,0,2.25-7.74c.1-.53.19-1.06.28-1.6a44.77,44.77,0,0,0,.49-6.6V49.62a43.71,43.71,0,0,0-39-43.4c-.39,0-.79-.08-1.17-.1L317.37,6h0c-.75,0-1.48,0-2.24,0H49.63c-.76,0-1.5,0-2.24,0h0A43.69,43.69,0,0,0,6,49.62V686.43a43.69,43.69,0,0,0,38.73,43.36c-.3,0-.59,0-.89-.08h0c-.77-.09-1.52-.2-2.27-.33a47.55,47.55,0,0,1-12.91-4.14l-.85-.41c-.72-.38-1.43-.76-2.13-1.16l-.95-.56A49.29,49.29,0,0,1,20.13,720l-.78-.62c-.77-.63-1.53-1.27-2.26-1.94l-.7-.67c-.28-.26-.55-.51-.81-.78l-.79-.8c-.17-.18-.34-.35-.5-.54s-.43-.46-.63-.69a46.57,46.57,0,0,1-3.45-4.34c-.2-.26-.38-.54-.57-.81-.58-.84-1.12-1.71-1.64-2.59-.19-.32-.37-.64-.55-1a48.38,48.38,0,0,1-3.38-7.52c-.13-.36-.25-.71-.36-1.07a48.57,48.57,0,0,1-1.43-5.52L2.07,690a48.87,48.87,0,0,1-.69-8.17V49.62c0-.48,0-.95,0-1.42s0-.71,0-1.06c0-.77.09-1.54.17-2.3,0-.4.08-.79.13-1.18,0-.21.06-.42.08-.63s.07-.5.11-.75.12-.8.2-1.19c.12-.69.25-1.37.41-2.05.07-.34.16-.67.24-1,.24-1,.52-2,.83-3l.3-.92c.13-.38.26-.75.4-1.12s.23-.62.35-.92.19-.51.3-.76.25-.61.38-.9.19-.45.31-.67.29-.66.46-1c.26-.57.55-1.14.85-1.7.15-.29.31-.57.47-.86s.37-.66.56-1a49.33,49.33,0,0,1,4.54-6.46l.73-.86.85-1c.48-.51,1-1,1.46-1.51s1.07-1.05,1.63-1.55,1.12-1,1.7-1.48c.28-.24.58-.47.87-.71.59-.46,1.19-.91,1.81-1.35s1.22-.86,1.86-1.27,1.27-.8,1.93-1.18l1-.56c.33-.19.66-.36,1-.54s.67-.35,1-.51l1-.5c.68-.31,1.38-.62,2.09-.9l1-.41a.19.19,0,0,1,.1,0l1-.38,1-.35c.39-.12.77-.25,1.17-.36l1.11-.31c.37-.11.74-.21,1.12-.3l1.13-.27c.77-.17,1.53-.32,2.3-.45.38-.06.77-.13,1.16-.18.82-.12,1.66-.22,2.5-.3.66-.06,1.34-.11,2-.14l1.23-.05,1.25,0H315.12l1.25,0,1,0c.78,0,1.55.09,2.33.16h0l1.17.13,1.17.16,1.16.18,1.14.21h0l1.13.24,1,.23.22.06,1,.26,1.34.38.91.29c.67.22,1.33.45,2,.7.46.16.9.33,1.33.52s.64.26,1,.4.69.3,1,.47l1,.49a47.2,47.2,0,0,1,6.91,4.15l.79.58c1,.72,1.88,1.47,2.77,2.25q.6.51,1.17,1A47.28,47.28,0,0,1,352.34,19c.25.3.48.58.71.88.49.62.95,1.23,1.39,1.86.23.31.45.64.67,1,.37.54.73,1.1,1.08,1.66.18.29.34.58.52.86.31.54.62,1.09.92,1.65.15.27.29.53.42.81.49.93.93,1.87,1.36,2.84.1.25.21.49.31.75.4,1,.76,1.94,1.1,2.92.13.37.25.73.36,1.1a48.93,48.93,0,0,1,1.54,6.51c0,.23.08.47.11.72s.11.77.16,1.16.09.78.13,1.18.07.79.11,1.19c0,.72.08,1.45.1,2.19q0,.7,0,1.41Z"/><path class="cls-2" d="M45,729.83l-1.16-.12h0c-.77-.09-1.52-.2-2.27-.33a47.55,47.55,0,0,1-12.91-4.14l-.85-.41c-.72-.38-1.43-.76-2.13-1.16l-.95-.56A49.29,49.29,0,0,1,20.13,720l-.78-.62c-.77-.63-1.53-1.27-2.26-1.94l-.7-.67c-.28-.26-.55-.51-.81-.78l-.79-.8c-.17-.18-.34-.35-.5-.54s-.43-.46-.63-.69a46.57,46.57,0,0,1-3.45-4.34c-.2-.26-.38-.54-.57-.81-.58-.84-1.12-1.71-1.64-2.59-.19-.32-.37-.64-.55-1a48.38,48.38,0,0,1-3.38-7.52c-.13-.36-.25-.71-.36-1.07a48.57,48.57,0,0,1-1.43-5.52L2.07,690a48.87,48.87,0,0,1-.69-8.17V54.22A48.31,48.31,0,0,1,47.36,6,43.69,43.69,0,0,0,6,49.62V686.43A43.7,43.7,0,0,0,45,729.83Z"/><path class="cls-3" d="M363.36,54.22v627.6A48.09,48.09,0,0,1,361,696.64c-.11.36-.23.72-.36,1.07s-.25.71-.39,1.06-.19.54-.3.79c-.31.79-.65,1.56-1,2.33-.15.34-.31.68-.48,1s-.46.93-.7,1.39-.33.62-.5.92-.36.65-.55,1c-.52.88-1.07,1.76-1.65,2.61-.19.27-.37.55-.57.81s-.43.6-.65.9-.44.6-.66.88l-.69.87c-.23.28-.47.57-.72.85-.48.57-1,1.12-1.48,1.65-.77.83-1.57,1.63-2.41,2.42l-.75.68c-.58.51-1.17,1-1.77,1.51l-.79.61c-.88.69-1.78,1.33-2.7,1.95l-.93.61c-.63.4-1.26.78-1.91,1.15-.31.18-.64.37-1,.53-1,.57-2.1,1.11-3.18,1.59l-.86.37c-.34.16-.68.3-1,.44L332,727c-.79.3-1.58.57-2.38.82l-.85.26c-1.05.31-2.12.59-3.21.83l-1.14.24-1.22.22c-.75.13-1.51.24-2.26.33h0l-1.16.12a43.71,43.71,0,0,0,39-43.4V49.62a43.69,43.69,0,0,0-40.18-43.5A48.27,48.27,0,0,1,363.36,54.22Z"/><path class="cls-4" d="M363.36,681.82v4.61a48.29,48.29,0,0,1-48.24,48.24H49.63A48.3,48.3,0,0,1,1.38,686.43v-4.61A48.87,48.87,0,0,0,2.07,690l.21,1.13a48.57,48.57,0,0,0,1.43,5.52c.11.36.23.71.36,1.07a48.38,48.38,0,0,0,3.38,7.52c.18.32.36.64.55,1,.52.88,1.06,1.75,1.64,2.59.19.27.37.55.57.81a46.57,46.57,0,0,0,3.45,4.34q.3.35.63.69c.16.19.33.36.5.54l.79.8c.26.27.53.52.81.78l.7.67c.73.67,1.49,1.31,2.26,1.94l.78.62a49.29,49.29,0,0,0,4.57,3.14l.95.56c.7.4,1.41.78,2.13,1.16l.85.41a47.55,47.55,0,0,0,12.91,4.14c.75.13,1.5.24,2.27.33h0c.78.09,1.55.17,2.33.22l1.2.08c.75,0,1.5,0,2.27,0H315.12c.76,0,1.5,0,2.25,0l1.2-.08c.63,0,1.26-.1,1.89-.17l.44,0h0c.76-.09,1.52-.2,2.26-.33l1.22-.22,1.14-.24c1.09-.24,2.16-.52,3.21-.83l.85-.26c.8-.25,1.59-.52,2.38-.82l1.05-.4c.35-.14.69-.28,1-.44l.86-.37c1.08-.48,2.14-1,3.18-1.59.32-.16.64-.34,1-.53.65-.37,1.28-.75,1.91-1.15l.93-.61c.92-.62,1.82-1.26,2.7-1.95l.79-.61c.6-.5,1.19-1,1.77-1.51l.75-.68c.84-.79,1.64-1.59,2.41-2.42.51-.53,1-1.08,1.48-1.65.25-.28.49-.57.72-.85s.47-.57.69-.87.45-.59.66-.88.44-.59.65-.9.38-.54.57-.81c.58-.85,1.13-1.73,1.65-2.61.19-.32.37-.65.55-1s.34-.61.5-.92.47-.92.7-1.39.34-.67.48-1c.35-.77.69-1.54,1-2.33.11-.25.21-.52.3-.79s.27-.7.39-1.06.25-.71.36-1.07A48.09,48.09,0,0,0,363.36,681.82Z"/><path class="cls-5" d="M363.36,49.62v4.6a48.28,48.28,0,0,0-43.62-48c-.39,0-.79-.08-1.17-.1L317.37,6h0c-.75,0-1.48,0-2.24,0H49.63c-.76,0-1.5,0-2.24,0h0a48.31,48.31,0,0,0-46,48.18v-4.6c0-.48,0-.95,0-1.42s0-.71,0-1.06c0-.77.09-1.54.17-2.3,0-.4.08-.79.13-1.18,0-.21.06-.42.08-.63s.07-.5.11-.75.12-.8.2-1.19c.12-.69.25-1.37.41-2.05.07-.34.16-.67.24-1,.24-1,.52-2,.83-3l.3-.92c.13-.38.26-.75.4-1.12s.23-.62.35-.92.19-.51.3-.76.25-.61.38-.9.19-.45.31-.67.29-.66.46-1c.26-.57.55-1.14.85-1.7.15-.29.31-.57.47-.86s.37-.66.56-1a49.33,49.33,0,0,1,4.54-6.46l.73-.86.85-1c.48-.51,1-1,1.46-1.51s1.07-1.05,1.63-1.55,1.12-1,1.7-1.48c.28-.24.58-.47.87-.71.59-.46,1.19-.91,1.81-1.35s1.22-.86,1.86-1.27,1.27-.8,1.93-1.18l1-.56c.33-.19.66-.36,1-.54s.67-.35,1-.51l1-.5c.68-.31,1.38-.62,2.09-.9l1-.41a.19.19,0,0,1,.1,0l1-.38,1-.35c.39-.12.77-.25,1.17-.36l1.11-.31c.37-.11.74-.21,1.12-.3l1.13-.27c.77-.17,1.53-.32,2.3-.45.38-.06.77-.13,1.16-.18.82-.12,1.66-.22,2.5-.3.66-.06,1.34-.11,2-.14l1.23-.05,1.25,0H315.12l1.25,0,1,0c.78,0,1.55.09,2.33.16h0l1.17.13,1.17.16,1.16.18,1.14.21h0l1.13.24,1,.23.22.06,1,.26,1.34.38.91.29c.67.22,1.33.45,2,.7.46.16.9.33,1.33.52s.64.26,1,.4.69.3,1,.47l1,.49a47.2,47.2,0,0,1,6.91,4.15l.79.58c1,.72,1.88,1.47,2.77,2.25q.6.51,1.17,1A47.28,47.28,0,0,1,352.34,19c.25.3.48.58.71.88.49.62.95,1.23,1.39,1.86.23.31.45.64.67,1,.37.54.73,1.1,1.08,1.66.18.29.34.58.52.86.31.54.62,1.09.92,1.65.15.27.29.53.42.81.49.93.93,1.87,1.36,2.84.1.25.21.49.31.75.4,1,.76,1.94,1.1,2.92.13.37.25.73.36,1.1a48.93,48.93,0,0,1,1.54,6.51c0,.23.08.47.11.72s.11.77.16,1.16.09.78.13,1.18.07.79.11,1.19c0,.72.08,1.45.1,2.19Q363.36,48.92,363.36,49.62Z"/><path d="M317.37,6h0c-.74,0-1.48,0-2.24,0H49.63c-.76,0-1.5,0-2.24,0h0A43.69,43.69,0,0,0,6,49.62V686.43a43.69,43.69,0,0,0,40.17,43.5l1.2.08c.75,0,1.5,0,2.27,0H315.12c.76,0,1.5,0,2.25,0l1.2-.08a43.7,43.7,0,0,0,40.18-43.5V49.62A43.69,43.69,0,0,0,317.37,6Zm37.7,680.39a40.14,40.14,0,0,1-36.76,39.83l-1.12.06q-1,.06-2.07.06H49.63c-.7,0-1.4,0-2.09-.06-.37,0-.75,0-1.09-.06A40.13,40.13,0,0,1,9.67,686.43V49.62A39.93,39.93,0,0,1,47.46,9.73h.11c.68,0,1.37-.05,2.06-.05H315.12c.69,0,1.38,0,2.06.05h.06a39.91,39.91,0,0,1,37.83,39.89Z"/><path class="cls-6" d="M355.06,49.88V686.69a39.61,39.61,0,0,1-5.22,19.63c-.31.54-.63,1.06-.95,1.58-.5.77-1,1.53-1.55,2.27a41.33,41.33,0,0,1-5.14,5.76,41.52,41.52,0,0,0,5.49-20.65v-7.34q0-.65,0-1.32V49.81c0-.45,0-.9,0-1.34V41.28a41.72,41.72,0,0,0-5.5-20.79A39.9,39.9,0,0,1,355.06,49.88Z"/><path d="M317.05,13.41l-.17,0c-.58,0-1.17,0-1.76,0H49.63q-.91,0-1.8,0l-.18,0h-.09a36.25,36.25,0,0,0-34.2,36.21V686.43a36.42,36.42,0,0,0,33.39,36.15c.27,0,.58,0,.88.06h.1c.63,0,1.26.05,1.9.05H315.12c.63,0,1.25,0,1.87-.05h.11c.31,0,.63,0,.92-.06a36.41,36.41,0,0,0,33.36-36.15V49.62A36.23,36.23,0,0,0,317.05,13.41Zm24.66,673a26.69,26.69,0,0,1-24.45,26.51l-.39,0h-.4l-1.35,0H49.63c-.46,0-.93,0-1.38,0h-.38l-.36,0A26.71,26.71,0,0,1,23,686.43V49.62A26.6,26.6,0,0,1,47.86,23.08h.24l.36,0c.42,0,.81,0,1.17,0H315.12c.36,0,.75,0,1.2,0h.22a26.57,26.57,0,0,1,25.17,26.56Z"/><path d="M272.63,23V26.5a21.16,21.16,0,0,1-21.16,21.16H113.27A21.16,21.16,0,0,1,92.11,26.5V23Z"/><path d="M272.63,23V26.5a21.16,21.16,0,0,1-21.16,21.17H113.27A21.16,21.16,0,0,1,92.11,26.5V23Z"/><path class="cls-7" d="M347.69,687.94v7.34a41.52,41.52,0,0,1-5.49,20.65,39.74,39.74,0,0,1-23.87,10.52c-.37,0-.75.06-1.13.06-.68,0-1.37.06-2.06.06H49.65q-1,0-2.1-.06c-.36,0-.74,0-1.08-.06-.51,0-1-.09-1.52-.16a39.66,39.66,0,0,1-22.36-10.35,41.6,41.6,0,0,1-5.53-20.72v-8.6a32.61,32.61,0,0,0,11.47,24.75,32.21,32.21,0,0,0,18.52,7.73c.23,0,.46,0,.69,0h.2c.56,0,1.13,0,1.71,0H315.14c.55,0,1.12,0,1.67,0H317c.26,0,.51,0,.76,0A32.71,32.71,0,0,0,347.69,687.94Z"/><path class="cls-8" d="M355.06,49.88l0-.07A39.91,39.91,0,0,0,317.26,9.92h-.07c-.67,0-1.36-.05-2.05-.05H49.65c-.7,0-1.39,0-2.06.05h-.11c-.87.05-1.71.12-2.56.22A39.72,39.72,0,0,0,22.56,20.43a41.72,41.72,0,0,0-5.5,20.79v8.59A32.58,32.58,0,0,1,47.69,17.29h.18l.24,0,1.54,0H315.14l1.39,0h0l.33,0a32.55,32.55,0,0,1,30.82,31.19V41.28a41.72,41.72,0,0,0-5.5-20.79A39.9,39.9,0,0,1,355.06,49.88Z"/><path class="cls-9" d="M22.58,715.75A40,40,0,0,1,9.67,686.43V49.62A39.86,39.86,0,0,1,22.54,20.24,41.66,41.66,0,0,0,17,41V695A41.52,41.52,0,0,0,22.58,715.75Z"/><path class="cls-10" d="M355.06,49.88V686.69a39.61,39.61,0,0,1-5.22,19.63c-.31.54-.63,1.06-.95,1.58-.48.77-1,1.53-1.55,2.27a40.46,40.46,0,0,1-5.18,5.84l0-.08a41.52,41.52,0,0,0,5.49-20.65v-654a41.72,41.72,0,0,0-5.5-20.79A39.9,39.9,0,0,1,355.06,49.88Z"/><rect class="cls-11" x="160.07" y="25.89" width="42.37" height="4.45" rx="1.77"/><path class="cls-12" d="M316.88,23h-.24l-.36,0c-.42,0-.81,0-1.17,0H276.8a4.43,4.43,0,0,0-4.18,4c0,.15,0,.3,0,.45v.06a21.16,21.16,0,0,1-21.14,20.16H113.26A21.16,21.16,0,0,1,92.12,27.46V27.4c0-.15,0-.3,0-.45a4.43,4.43,0,0,0-4.18-4H49.61c-.36,0-.75,0-1.17,0l-.36,0h-.24A26.59,26.59,0,0,0,23,49.57V686.42a26.72,26.72,0,0,0,24.48,26.51l.36,0h.38l1.38,0h265.5l1.38,0h.38l.36,0a26.72,26.72,0,0,0,24.48-26.51V49.57A26.59,26.59,0,0,0,316.88,23Z"/></g></g></svg>