<svg xmlns="http://www.w3.org/2000/svg" viewBox="0 0 128.78 77.64"><defs><style>.cls-1{fill:#8dce1c;}.cls-2{fill:#c3ea78;}.cls-3{fill:#79b20b;}</style></defs><g id="圖層_2" data-name="圖層 2"><g id="圖層_1-2" data-name="圖層 1"><path class="cls-1" d="M75.74,20.35A6.3,6.3,0,0,1,78.07,25l.05,6.25H69.45L63.93,28l0-.29V28L52.7,21.55a15.84,15.84,0,0,0-2.11-1c2.59-2.46,7.28-4.1,12.65-4.1A21.45,21.45,0,0,1,73.73,18.9a12.94,12.94,0,0,1,2,1.45Z"/><polygon class="cls-1" points="78.12 31.22 81.93 31.22 81.93 31.36 75.83 34.89 69.45 31.22 78.12 31.22 78.12 31.22"/><polygon class="cls-1" points="63.93 28.03 69.45 31.22 75.83 34.89 64.57 41.44 63.93 28.03 63.93 28.03"/><path class="cls-2" d="M84.68,42.89l-1.65,0L83,42c14-7.65,24.14-13,24.65-13.34-.48.29-9.82,6.13-22.95,14.26Z"/><path class="cls-1" d="M121.53,32.45a11.6,11.6,0,0,1-1.74,1.21l-16.49,9.6-18.62-.37c13.13-8.13,22.47-14,22.95-14.26C107.12,28.92,97,34.32,83,42l-.67-10.82,16.5-9.6a17.08,17.08,0,0,1,2.1-1c5.71-2.24,13.64-1.9,18.71,1s5.79,7.58,1.91,10.9Z"/><polygon class="cls-2" points="82.1 27.79 82.31 31.15 82.98 41.97 83.03 42.86 83.03 42.9 82.19 43.4 82.1 43.36 81.33 42.9 81.33 42.86 81.93 31.36 81.93 31.22 82.1 27.79 82.1 27.79"/><polygon class="cls-2" points="109.09 43.36 102.92 43.49 83.14 43.86 82.95 43.86 82.1 43.36 82.19 43.4 83.03 42.9 83.03 42.86 84.68 42.89 103.3 43.26 109.09 43.36 109.09 43.36"/><path class="cls-1" d="M52.7,21.55,63.9,28l-.53,14.1L55,47l-8.92-5.16-.57-14.12-.43,13.55L31.84,33.66a10.35,10.35,0,0,1-1.75-1.21c-4-3.32-3.47-7.88,1.59-10.9s13.1-3.33,18.91-1a15.84,15.84,0,0,1,2.11,1Z"/><path class="cls-1" d="M128.71,39.8c0,3.06-2.68,5.7-6.77,7.22a23.41,23.41,0,0,1-8,1.34H99.12L96.82,47l6.1-3.53,6.17-.13-5.79-.1,16.49-9.6a11.6,11.6,0,0,0,1.74-1.21,17.11,17.11,0,0,1,2.8,1.27c2.7,1.53,4.37,3.72,4.38,6.08Z"/><polygon class="cls-1" points="46.31 48.36 46.05 41.86 54.97 47.02 52.69 48.36 46.31 48.36 46.31 48.36"/><path class="cls-1" d="M31.84,33.66l13.21,7.63-.21,7.07h-7a23.54,23.54,0,0,1-8-1.34,17.07,17.07,0,0,1-2.51-1.16C24.66,44.33,23,42.17,23,39.8c0-3.12,2.83-5.85,7.1-7.35a10.35,10.35,0,0,0,1.75,1.21Z"/><path class="cls-1" d="M81.33,42.86c-5.12,2.77-10.65,5.79-16.26,8.85l-.5-10.27,11.26-6.55,6.1-3.53-.6,11.5Z"/><polygon class="cls-1" points="52.69 48.36 46.47 51.95 46.31 48.36 52.69 48.36 52.69 48.36"/><path class="cls-2" d="M67.55,53.5l-2.39-.06-.09-1.73c5.61-3.06,11.14-6.08,16.26-8.85v0l.77.46.85.5h.19c-4.88,3-10.2,6.31-15.59,9.64Z"/><path class="cls-1" d="M67.55,53.5c5.39-3.33,10.71-6.61,15.59-9.64l19.78-.37L96.82,47,85.21,53.77,67.55,53.5Z"/><polygon class="cls-1" points="96.82 47.02 99.12 48.36 109.16 54.15 85.21 53.77 96.82 47.02 96.82 47.02"/><polygon class="cls-2" points="63.9 27.74 63.93 28.03 64.57 41.44 65.07 51.71 65.16 53.44 64.06 54.15 63.97 54.1 62.96 53.5 62.98 52.87 63.37 42.13 63.9 28.03 63.9 27.74 63.9 27.74"/><polygon class="cls-2" points="109.16 54.15 83.98 54.5 65.53 54.73 65.08 54.73 63.97 54.1 64.06 54.15 65.16 53.5 67.55 53.5 85.21 53.77 109.16 54.15 109.16 54.15"/><path class="cls-1" d="M44.7,53,32,60.39a10.64,10.64,0,0,0-1.75,1.23,16.71,16.71,0,0,1-2.86-1.29c-2.68-1.54-4.37-3.69-4.37-6,0-3,2.73-5.73,6.86-7.26a23.54,23.54,0,0,0,8,1.34h7L44.7,53Z"/><path class="cls-1" d="M63,52.87l-16.1,8.85L46.47,52l6.21-3.59L55,47l8.4-4.89L63,52.87Z"/><polygon class="cls-1" points="69.53 62.88 75.96 59.13 82.42 62.85 78.29 62.88 69.53 62.88 69.53 62.88"/><path class="cls-2" d="M51.22,63.48l-4.28-.06-.06-1.7L63,52.87l0,.63,1,.6,1.11.63h.45c-4.8,3-9.65,5.92-14.31,8.75Z"/><path class="cls-1" d="M51.22,63.48c4.66-2.83,9.51-5.79,14.31-8.75L84,54.5l-8,4.63-6.43,3.75-1.44.84-16.87-.24Z"/><polygon class="cls-1" points="78.29 62.88 78.29 63.85 68.09 63.72 69.53 62.88 78.29 62.88 78.29 62.88"/><polygon class="cls-1" points="82.42 62.85 84.24 63.91 78.29 63.85 78.29 62.88 82.42 62.85 82.42 62.85"/><polygon class="cls-2" points="109.22 64.25 85.28 64.51 78.29 64.61 66.32 64.74 48.83 64.95 46.95 64.98 45.58 64.19 46.95 63.48 51.22 63.48 68.09 63.72 78.29 63.85 84.24 63.91 109.22 64.25 109.22 64.25"/><polygon class="cls-2" points="45.48 27.74 46.05 41.86 46.31 48.36 46.47 51.95 46.88 61.72 46.94 63.42 45.66 64.25 44.37 63.48 44.4 63.09 44.7 53 44.84 48.36 45.05 41.29 45.48 27.74 45.48 27.74"/><path class="cls-2" d="M48.83,65c-5.19,3.15-10.08,6.11-14.36,8.68L32,72.5l-1.88-1.39c4.23-2.41,9.13-5.13,14.31-8l0,.39,1.21.71L47,65l1.88,0Z"/><path class="cls-1" d="M44.4,63.09c-5.18,2.89-10.08,5.61-14.31,8L32,72.5c-5.08-2.94-5.68-7.52-1.75-10.88A10.64,10.64,0,0,1,32,60.39L44.7,53l-.3,10.09Z"/><path class="cls-1" d="M121.69,61.59c4,3.36,3.46,8-1.68,11s-13,3.23-18.83.93a18.3,18.3,0,0,1-2.09-1l-13.81-8,23.94-.26-25-.34-1.82-1.06L76,59.13l8-4.63,25.18-.35L120,60.36a15,15,0,0,1,1.74,1.23Z"/><path class="cls-1" d="M34.47,73.63c4.28-2.57,9.17-5.53,14.36-8.68l17.49-.21L53,72.5a13.69,13.69,0,0,1-2.14,1c-5.77,2.26-13.7,1.93-18.85-1l2.5,1.13Z"/><path class="cls-1" d="M76,73.69c-2.62,2.4-7.22,4-12.44,4A21.31,21.31,0,0,1,53,75.15a11.28,11.28,0,0,1-2.2-1.62,13.69,13.69,0,0,0,2.14-1l13.36-7.76,12-.13,0,4.49A6.26,6.26,0,0,1,76,73.69Z"/><path class="cls-1" d="M101.18,73.49c-2.56,2.5-7.25,4.15-12.64,4.15a21.36,21.36,0,0,1-10.48-2.49,13.56,13.56,0,0,1-2-1.46,6.26,6.26,0,0,0,2.28-4.59l0-4.49,7-.1,13.81,8a18.3,18.3,0,0,0,2.09,1Z"/><path class="cls-1" d="M88.2,16.39a21.65,21.65,0,0,1,10.51,2.54,11.93,11.93,0,0,1,2.2,1.59,17.08,17.08,0,0,0-2.1,1l-16.5,9.6-.22-3.36-.16,3.43H78.12L78.07,25a6.3,6.3,0,0,0-2.33-4.62c2.59-2.39,7.18-4,12.46-4Z"/><path class="cls-1" d="M128.78,54.24c0,3.12-2.82,5.84-7.09,7.35A15,15,0,0,0,120,60.36l-10.79-6.21-10-5.79H114a23.41,23.41,0,0,0,8-1.34,16.09,16.09,0,0,1,2.51,1.16c2.68,1.54,4.32,3.7,4.33,6.06Z"/><path class="cls-3" d="M76,54.22c6.69-.46,13.43-.68,20.21-.62-6.78-.06-13.52.16-20.21.62Zm6.11-26.43v.12l-.17,3.31.16-3.43ZM56.44,46l-2.61.41-1.08.83,1.07-.89L56.44,46c5.3-4.19,10.79-8.16,16-11.68-5.22,3.52-10.71,7.49-16,11.68Zm8.72,7.46-1.1.65,1.1-.71,2.39.06ZM61.83,38.87c-2.82,1.87-5.65,3.82-8.44,5.84,2.79-2,5.62-4,8.44-5.84ZM69,18.63c.09,1.1.19,2.2.29,3.31-.11-1.14-.21-2.29-.32-3.43l0,.12ZM36.21,58.41c4.66-4.09,9.78-8.22,15.12-12.18-5.34,4-10.46,8.09-15.12,12.18ZM47,63.48l-.51.27.5-.33,4.28.06ZM36.73,60.1l-.46.37L36.7,60c1.47-.33,2.95-.65,4.42-1-1.46.32-2.93.66-4.39,1ZM33.26,49.05q2.87-2.55,5.83-5-3,2.48-5.83,5ZM123.9,47.9a16.81,16.81,0,0,0-2-.88A15.63,15.63,0,0,0,125,45.48a3,3,0,0,0,.06-.42c.14-2.36-1.61-4.72-4.66-6.52a19.25,19.25,0,0,0-2.88-1.39,14.14,14.14,0,0,0,6.83-3.41l0,0a17.11,17.11,0,0,0-2.8-1.27c2.14-1.83,2.91-4.06,2.3-6.18A13.58,13.58,0,0,0,120.77,24a23.1,23.1,0,0,0-3.4-1.52A8.69,8.69,0,0,0,119,21.22c-5.08-2.62-12.6-2.85-18.08-.7a11.93,11.93,0,0,0-2.2-1.59A21.65,21.65,0,0,0,88.2,16.39c-5.28,0-9.87,1.57-12.46,4a12.94,12.94,0,0,0-2-1.45,21.45,21.45,0,0,0-10.49-2.48c-5.37,0-10.06,1.64-12.65,4.1a24.26,24.26,0,0,0-12.53-1.16q4.59,1.09,9.11,2.32c-3-.82-6.05-1.58-9.11-2.32a19.19,19.19,0,0,0-6.38,2.19c-5.06,3-5.6,7.58-1.59,10.9C25.82,34,23,36.68,23,39.8c0,2.37,1.67,4.53,4.35,6.06A17.07,17.07,0,0,0,29.85,47C25.72,48.55,23,51.25,23,54.28c0,2.36,1.69,4.51,4.37,6a16.71,16.71,0,0,0,2.86,1.29,6.52,6.52,0,0,0-2.55,4.7c2-1.94,4.1-3.94,6.34-6-2.24,2-4.36,4-6.34,6C27.61,68.56,29,70.8,32,72.5l.76.4A27.41,27.41,0,0,0,43,69a11.08,11.08,0,0,0,2.54,1.11,23.75,23.75,0,0,0,11,.44c5.18-.86,9.57-3,12-5.7A16.29,16.29,0,0,0,70.72,66a24.53,24.53,0,0,0,10.92,1.57c5.49-.36,10.24-2.12,12.88-4.64,6.12,2.21,14.33,2.16,19.86-.38s6.62-7.13,2.35-10.84a16,16,0,0,0-1.89-1.37,16,16,0,0,1,1.89,1.37c3.19-.78,5.76-2.11,7.17-3.83Z"/><path class="cls-1" d="M53.5,8c2.16.88,3.61,2.18,4.08,3.83.58,2,1.15,4,1.72,6-3.4.74-6.76,1.53-10.11,2.39-2.46-.48-4.92-.93-7.41-1.34l-.12-.27.09.27q-7.55-1.26-15.27-2.12a20.55,20.55,0,0,0-2.84-.13c2.08-3.32,7.05-6.71,13.53-8.55a30.25,30.25,0,0,1,13.48-1A16.78,16.78,0,0,1,53.5,8Z"/><path class="cls-1" d="M59.3,17.83c1.49-.32,3-.64,4.48-.94l0,.13Q60.66,19.46,57.6,22c-2.78-.62-5.59-1.21-8.41-1.75,3.35-.86,6.71-1.65,10.11-2.39Z"/><path class="cls-1" d="M41.78,18.88c2.49.41,4.95.86,7.41,1.34,2.82.54,5.63,1.13,8.41,1.75Q52,26.62,46.7,31.47q-2.4-6.31-4.92-12.59Z"/><path class="cls-2" d="M69.72,27.66,67.83,28c-.08-.29-.17-.58-.26-.87A260.4,260.4,0,0,1,94.2,9.82,270.46,270.46,0,0,0,69.72,27.66Z"/><path class="cls-1" d="M111.68,12.56a14.65,14.65,0,0,1-2,1.28q-9.59,5.22-18.45,11-10.83,1-21.49,2.8A270.46,270.46,0,0,1,94.2,9.82a260.4,260.4,0,0,0-26.63,17.3q-1.62-5.21-3.35-10.39Q72.79,10.12,82.11,4a21.23,21.23,0,0,1,2.42-1.35c6.71-3.13,17-3.62,23.69-.94,6.9,2.74,7.93,7.36,3.46,10.82Z"/><path class="cls-2" d="M63.14,13.51l1.08,3.22q1.73,5.19,3.35,10.39c.09.29.18.58.26.87v0L67,28.7l-.11,0-1-.27v0q-1-5.69-2.08-11.35l0-.13c-.21-1.12-.43-2.25-.64-3.38Z"/><path class="cls-2" d="M98,24.32c-2.39.24-4.78.52-7.16.82q-11.44,1.44-22.62,3.8L68,29l-1.08-.3.11,0,.83-.67v0l1.89-.33q10.65-1.8,21.49-2.8c2.25-.21,4.51-.39,6.76-.54Z"/><path class="cls-1" d="M26.48,16.76q7.72.85,15.27,2.12c1.3,4.54,2.58,9.07,3.82,13.62q-3.9,3.63-7.59,7.38-5.65-.93-11.43-1.6-2.93-6.47-6-12.89,2.4,6.36,4.73,12.74-8.55-1-17.32-1.38a14.79,14.79,0,0,1-2.43-.27C-.24,35.39-1.87,31.09,2.44,25.9S16,16.76,23.64,16.63a20.55,20.55,0,0,1,2.84.13Z"/><path class="cls-1" d="M120.91,19.75c.18,3.08-2.91,5.71-7.56,7.37a34.34,34.34,0,0,1-9.12,1.76q-8.57.54-17,1.6l-2.84-1q3.16-2.22,6.44-4.36c2.38-.3,4.77-.58,7.16-.82-2.25.15-4.51.33-6.76.54q8.87-5.79,18.45-11a13.76,13.76,0,0,0,2-1.28,24,24,0,0,1,3.53,1.16c3.42,1.47,5.57,3.67,5.7,6Z"/><path class="cls-1" d="M29.23,44.23q-1.32-3-2.68-5.95Q32.32,39,38,39.88c-.67.68-1.34,1.36-2,2q-3.39,1.11-6.75,2.3Z"/><path class="cls-1" d="M8,36.75q8.76.42,17.32,1.38,1.21,3.33,2.42,6.66Q24,46.13,20.35,47.57a32.73,32.73,0,0,1-8.74,2.19,24.74,24.74,0,0,1-3.07.08c-3.41-.15-6.08-1.28-7.2-3.38-1.46-2.77.24-6.62,4.18-10A14.79,14.79,0,0,0,8,36.75Z"/><path class="cls-1" d="M65.9,28.37c-5.14,3.87-10.48,8.22-15.61,12.79-1.17-3.23-2.37-6.47-3.59-9.69Q52,26.63,57.6,22q3.06-2.5,6.22-4.95,1.07,5.67,2.08,11.35Z"/><path class="cls-1" d="M36,41.93c-1.8,1.85-3.55,3.71-5.28,5.6l-1.47-3.3Q32.59,43,36,41.93Z"/><path class="cls-2" d="M53.45,42.17l-2.57.63-.59-1.64c5.14-4.57,10.47-8.92,15.61-12.79v0l1,.27L68,29l.21,0c-4.83,4-9.89,8.53-14.74,13.23Z"/><path class="cls-1" d="M53.45,42.17c4.85-4.7,9.91-9.2,14.74-13.23q11.16-2.36,22.62-3.8-3.27,2.14-6.44,4.36-6,4.22-11.7,8.7-9.72,1.63-19.22,4Z"/><path class="cls-1" d="M84.37,29.5l2.84,1q6.17,2.14,12.15,4.57Q85.86,36,72.67,38.2q5.65-4.47,11.7-8.7Z"/><path class="cls-2" d="M41.66,18.61l.12.27q2.52,6.27,4.92,12.59c1.22,3.22,2.42,6.46,3.59,9.69l.59,1.64-1,1-.1,0-1.25-.27c-.06-.21-.12-.41-.17-.61-.93-3.47-1.86-6.93-2.82-10.39-1.24-4.55-2.52-9.08-3.82-13.62l-.09-.27Z"/><path class="cls-2" d="M99.36,35.05a269.72,269.72,0,0,0-27.88,4.11q-10.05,2-19.84,4.77l-.47.13-1.36-.29.1,0,1-.94,2.55-.68q9.49-2.33,19.22-4Q85.85,36,99.36,35.05Z"/><path class="cls-1" d="M29.25,49.17Q24,55,19.3,61a10.68,10.68,0,0,0-1.21,1.86,20.52,20.52,0,0,1-3.31,0c-3.25-.24-5.84-1.4-6.89-3.52C6.5,56.71,8,53,11.61,49.76a32.73,32.73,0,0,0,8.74-2.19q3.64-1.44,7.34-2.78l1.56,4.38Z"/><path class="cls-1" d="M48.39,42.89c-4.92,4.48-9.58,9.11-13.8,13.64-1.28-3-2.57-6-3.89-9,1.73-1.89,3.48-3.75,5.28-5.6.66-.69,1.33-1.37,2-2q3.69-3.75,7.59-7.38c1,3.46,1.89,6.92,2.82,10.39Z"/><path class="cls-1" d="M58.07,50.69c1.9-1.76,3.84-3.51,5.82-5.23,2.58.7,5.15,1.43,7.69,2.2-1.46.29-2.91.6-4.35.92q-4.62,1-9.16,2.11Z"/><path class="cls-2" d="M39.54,56.7c-1.44.46-2.88.93-4.3,1.41-.22-.52-.44-1-.65-1.58,4.22-4.53,8.88-9.16,13.8-13.64,0,.2.11.4.17.61l1.25.27,1.36.29.47-.13c-4.25,4.21-8.35,8.55-12.1,12.77Z"/><path class="cls-1" d="M39.54,56.7c3.75-4.22,7.85-8.56,12.1-12.77q9.78-2.74,19.84-4.77-3.89,3.11-7.59,6.3c-2,1.72-3.92,3.47-5.82,5.23L56.8,51.87Q48.06,54,39.54,56.7Z"/><path class="cls-1" d="M67.23,48.58c.07.31.14.63.22.94q-5.37,1.06-10.65,2.35l1.27-1.18q4.55-1.14,9.16-2.11Z"/><path class="cls-1" d="M71.58,47.66l2.14.67q-3.15.56-6.27,1.19c-.08-.31-.15-.63-.22-.94,1.44-.32,2.89-.63,4.35-.92Z"/><path class="cls-2" d="M100.53,45.11a257,257,0,0,0-25.59,3.61q-3.68.72-7.32,1.54-6.24,1.4-12.37,3.08-8.94,2.46-17.61,5.55l-1.85.68-1.65-.26,1.13-1.15c1.42-.5,2.84-1,4.27-1.46Q48.06,54,56.8,51.87q5.28-1.27,10.65-2.35,3.12-.63,6.27-1.19a258.5,258.5,0,0,1,26.81-3.22Z"/><path class="cls-2" d="M20.54,25.39q3.08,6.42,6,12.89,1.36,3,2.68,5.95l1.47,3.3c1.32,3,2.61,6,3.89,9,.21.53.43,1.06.65,1.58l-1,1.22-1.55-.25c0-.13-.07-.25-.11-.38q-1.65-4.77-3.34-9.53l-1.56-4.38q-1.2-3.33-2.42-6.66-2.32-6.37-4.73-12.74Z"/><path class="cls-2" d="M37.64,58.89c-4.1,4.74-7.72,9.3-10.74,13.32l-2.77-.08-2.32-.52c3-3.91,6.65-8.33,10.78-12.91,0,.13.08.25.11.38l1.44.23,1.65.26,1.85-.68Z"/><path class="cls-1" d="M32.59,58.7c-4.13,4.58-7.78,9-10.78,12.91l2.32.52c-5.88-.66-8.46-4.51-6-9.25A10.68,10.68,0,0,1,19.3,61q4.72-6,10-11.85,1.7,4.76,3.34,9.53Z"/><path class="cls-1" d="M114,41.71c4.64,3.26,4.08,7.88-1.23,11s-13.4,4-19.72,2.4a20.11,20.11,0,0,1-2.31-.73Q83,51.33,74.94,48.72a257,257,0,0,1,25.59-3.61,258.5,258.5,0,0,0-26.81,3.22l-2.14-.67c-2.54-.77-5.11-1.5-7.69-2.2q3.7-3.19,7.59-6.3a269.72,269.72,0,0,1,27.88-4.11q6.44,2.6,12.63,5.49a14.83,14.83,0,0,1,2,1.17Z"/><path class="cls-1" d="M26.9,72.21c3-4,6.64-8.58,10.74-13.32q8.67-3.07,17.61-5.55-5.79,5.55-11.08,11.34a14.64,14.64,0,0,1-1.75,1.66c-4.86,4-12.32,6.46-18.29,5.79l2.77.08Z"/><path class="cls-1" d="M67.34,59.61C65.23,62.54,61.07,65.12,56,66.5a23.63,23.63,0,0,1-10.94.68,11.84,11.84,0,0,1-2.64-.84,14.64,14.64,0,0,0,1.75-1.66q5.28-5.79,11.08-11.34,6.12-1.68,12.37-3.08c.34,1.46.68,2.92,1,4.38a6.16,6.16,0,0,1-1.29,5Z"/><path class="cls-1" d="M93.05,55.13c-2.36,2.78-6.91,5-12.34,5.92a24.56,24.56,0,0,1-11-.44,15.37,15.37,0,0,1-2.35-1,6.16,6.16,0,0,0,1.29-5c-.33-1.46-.67-2.92-1-4.38q3.64-.82,7.32-1.54,8.07,2.6,15.8,5.68a20.11,20.11,0,0,0,2.31.73Z"/><path class="cls-1" d="M67.79,1a30.93,30.93,0,0,1,13.69.46,16.16,16.16,0,0,1,3,1.22A21.23,21.23,0,0,0,82.11,4q-9.33,6.08-17.89,12.7l-1.1-3.21.66,3.37c-1.5.3-3,.62-4.48.94-.57-2-1.14-4-1.72-6C57.11,10.13,55.66,8.83,53.5,8,56,4.92,61.2,2.16,67.79,1Z"/><path class="cls-1" d="M121.65,34.23c.12,3.13-3,5.84-7.65,7.48a14.83,14.83,0,0,0-2-1.17q-6.19-2.9-12.63-5.49-6-2.41-12.15-4.57,8.45-1.05,17-1.6a34.34,34.34,0,0,0,9.12-1.76,18.74,18.74,0,0,1,3,1.09c3.22,1.48,5.21,3.65,5.31,6Z"/></g></g></svg>