<svg xmlns="http://www.w3.org/2000/svg" viewBox="0 0 106.87 62.52"><defs><style>.cls-1{fill:#e8a700;}.cls-2{fill:#c78c00;}.cls-3{fill:#fdb200;}</style></defs><g id="圖層_2" data-name="圖層 2"><g id="圖層_1-2" data-name="圖層 1"><path class="cls-1" d="M104.07,22.5c-2.68-2.27-6.35-2.8-9.72-3.23-6.64-.85-13.31-1.4-20-1.81-13.41-.82-26.79-.78-40.21-.75-3.76,0-7.53-.07-11.28-.33A57.06,57.06,0,0,1,11.59,15c.12-.89,1.64-1.21,2.3-1.48a39.78,39.78,0,0,1,10.33-2.27c14.8-1.74,30.15-1.49,45-.38,6.42.48,6.39-9.53,0-10a243.89,243.89,0,0,0-45,.38C16.11,2.14-.63,4.66.71,16.32c.6,5.18,5,7.75,9.68,8.75,7.1,1.51,14.65,1.61,21.88,1.64,7.81,0,15.61,0,23.4.12-3.83.44-7.65,1-11.44,1.68A132.31,132.31,0,0,0,10.12,39.45c-3.3,1.6-7.08,3.67-9,6.93A7.76,7.76,0,0,0,4,57.18C8.77,59.81,15.62,58,20.6,57c7.93-1.57,15.4-4.25,23.55-4.58,16.61-.69,32.49,4.46,48,9.79,6.1,2.1,8.72-7.55,2.66-9.64-12.12-4.17-24.31-8-37.09-9.58-13-1.56-24.55.82-37.13,3.78-1.56.36-3.13.7-4.71,1,1.19-.57,2.4-1.11,3.62-1.63A133.69,133.69,0,0,1,56,36.78a231,231,0,0,1,37.19-1.05c4,.18,8.92.72,11.87-2.69A7.33,7.33,0,0,0,104.07,22.5Z"/><path class="cls-2" d="M55.67,26.83S69.79,24.3,80.79,25.3c0,0-13-2-24,0s-7.85,1.53-7.85,1.53Z"/><path class="cls-3" d="M96.77,22a8,8,0,0,1,6.45,4.57c.27.58,1.13.08.86-.5A9,9,0,0,0,96.77,21c-.64-.06-.63.94,0,1Z"/><path class="cls-3" d="M64.22,2.87c2.36-.26,5.68-.54,6.92,2,.28.58,1.14.07.86-.5A4.8,4.8,0,0,0,69,2a11.68,11.68,0,0,0-4.82-.14.52.52,0,0,0-.5.5.51.51,0,0,0,.5.5Z"/><path class="cls-3" d="M62.2,2.23H59.82a.5.5,0,0,0,0,1H62.2a.5.5,0,0,0,0-1Z"/><path class="cls-3" d="M11.89,7.21a5.81,5.81,0,0,0-6.65,6.92c.12.63,1.09.36,1-.27a4.82,4.82,0,0,1,5.42-5.69.5.5,0,1,0,.26-1Z"/><path class="cls-3" d="M2.72,46.38a6.64,6.64,0,0,0,.68,7A6.64,6.64,0,0,0,10,55.66c.63-.14.36-1.11-.27-1a5.64,5.64,0,0,1-5.53-1.9,5.62,5.62,0,0,1-.61-5.92c.29-.57-.57-1.08-.86-.5Z"/><path class="cls-3" d="M14.43,54.68l3.19-.49a.5.5,0,1,0-.26-1l-3.2.48a.51.51,0,0,0-.35.62.52.52,0,0,0,.62.35Z"/><path class="cls-3" d="M91.7,54.24a3.51,3.51,0,0,1,3.16,1.83,3.55,3.55,0,0,1-.34,3.72.49.49,0,0,0,.18.68.5.5,0,0,0,.68-.18,4.42,4.42,0,0,0-3.68-7,.5.5,0,0,0,0,1Z"/><path class="cls-3" d="M91.06,59.85a.5.5,0,0,0,0-1,.5.5,0,0,0,0,1Z"/></g></g></svg>