<svg xmlns="http://www.w3.org/2000/svg" viewBox="0 0 110.32 60.05"><defs><style>.cls-1{fill:#af2ca9;}.cls-2{fill:#fff;}.cls-3{fill:#f3cbf4;}.cls-4{fill:#f5dcf9;}</style></defs><g id="圖層_2" data-name="圖層 2"><g id="圖層_1-2" data-name="圖層 1"><path class="cls-1" d="M89,53l-.39.22a53,53,0,0,1-52.25-.16,18.28,18.28,0,0,1-9.22-17.5,18.22,18.22,0,0,0,9.22,14.5,53,53,0,0,0,52.25.16L89,50a18.16,18.16,0,0,0,9.32-14.55A18.26,18.26,0,0,1,89,53Z"/><path class="cls-2" d="M47.34,16.31a52.8,52.8,0,0,1,20.12-2.1A45.61,45.61,0,0,0,47.34,16.31Z"/><path d="M62,13.88a45.56,45.56,0,0,0-14.68,2.43A52.77,52.77,0,0,1,62.78,14c1.56,0,3.13.07,4.68.21A44.88,44.88,0,0,0,62,13.88Z"/><path class="cls-3" d="M89,18l0,0a53,53,0,0,0-52.41,0l-.25.14a18.42,18.42,0,0,0,0,32c.54.31,1.09.61,1.64.89a52.89,52.89,0,0,0,49.49-.13c.37-.19.75-.39,1.12-.6L89,50A18.42,18.42,0,0,0,89,18ZM84.52,47.45l-.33.19a45.6,45.6,0,0,1-44.94-.14,15.66,15.66,0,0,1-8-13h0a15.71,15.71,0,0,1,8-14.49l.21-.12a45.55,45.55,0,0,1,45.08,0l0,0a15.57,15.57,0,0,1,7.2,8.74A15.82,15.82,0,0,1,84.52,47.45Z"/><path class="cls-4" d="M91.79,28.61a16.16,16.16,0,0,0-5.69-5.36l0,0a47,47,0,0,0-46.58,0l-.22.12a16.19,16.19,0,0,0-8,11.11,15.71,15.71,0,0,1,8-14.49l.21-.12a45.55,45.55,0,0,1,45.08,0l0,0A15.57,15.57,0,0,1,91.79,28.61Z"/><path class="cls-1" d="M64.21,45l-.36.27a53,53,0,0,1-51.72,7.4,18.31,18.31,0,0,1-11.66-16,18.25,18.25,0,0,0,11.22,13,53,53,0,0,0,51.73-7.4l.35-.27a18.16,18.16,0,0,0,7.12-15.75A18.27,18.27,0,0,1,64.21,45Z"/><path class="cls-2" d="M17.73,14.73a52.65,52.65,0,0,1,19.6-5A45.51,45.51,0,0,0,17.73,14.73Z"/><path d="M37.33,9.74a45.51,45.51,0,0,0-19.6,5,52.65,52.65,0,0,1,19.6-5Z"/><path class="cls-3" d="M59.22,10.33h0A53,53,0,0,0,7.32,17.9l-.23.17a18.42,18.42,0,0,0,4.6,31.67c.58.23,1.17.44,1.76.64a52.87,52.87,0,0,0,49-7.28c.34-.24.68-.5,1-.76l.35-.27a18.43,18.43,0,0,0-4.55-31.74ZM59,40.17l-.3.23a45.58,45.58,0,0,1-44.49,6.36A15.65,15.65,0,0,1,4.46,35h0a15.7,15.7,0,0,1,5.8-15.49l.19-.15a45.55,45.55,0,0,1,44.61-6.52l0,0a15.62,15.62,0,0,1,8.39,7.6A15.84,15.84,0,0,1,59,40.17Z"/><path class="cls-4" d="M63.49,20.47A16.12,16.12,0,0,0,57.08,16h0A47,47,0,0,0,11,22.71l-.2.15A16.17,16.17,0,0,0,4.46,35a15.7,15.7,0,0,1,5.8-15.49l.19-.15a45.55,45.55,0,0,1,44.61-6.52l0,0A15.62,15.62,0,0,1,63.49,20.47Z"/><path class="cls-1" d="M72,41.92l-.39.22a52.93,52.93,0,0,1-52.25,0A18.26,18.26,0,0,1,10.1,24.71a18.19,18.19,0,0,0,9.27,14.46,52.93,52.93,0,0,0,52.25,0l.39-.22a18.16,18.16,0,0,0,9.27-14.58A18.26,18.26,0,0,1,72,41.92Z"/><path class="cls-2" d="M30.28,5.36A53,53,0,0,1,50.39,3.19,45.73,45.73,0,0,0,30.28,5.36Z"/><path d="M45.11,2.88A45.65,45.65,0,0,0,30.28,5.36,52.92,52.92,0,0,1,45.9,3c1.5,0,3,.06,4.49.19a46.61,46.61,0,0,0-5.28-.31Z"/><path class="cls-3" d="M72,6.86l0,0A53,53,0,0,0,19.52,7l-.25.15a18.42,18.42,0,0,0,.1,32c.54.31,1.09.61,1.64.89a52.92,52.92,0,0,0,49.49-.31c.37-.19.75-.4,1.12-.61l.39-.22A18.42,18.42,0,0,0,72,6.86Zm-4.4,29.51-.33.19a45.6,45.6,0,0,1-44.94,0,15.66,15.66,0,0,1-8-13h0A15.71,15.71,0,0,1,22.21,9.05l.21-.12A45.55,45.55,0,0,1,67.5,8.77l0,0a15.54,15.54,0,0,1,7.23,8.71A15.82,15.82,0,0,1,67.57,36.37Z"/><path class="cls-4" d="M74.77,17.5a16.17,16.17,0,0,0-5.71-5.34l0,0a47.05,47.05,0,0,0-46.58.17l-.22.12a16.23,16.23,0,0,0-7.94,11.14A15.71,15.71,0,0,1,22.21,9.05l.21-.12A45.55,45.55,0,0,1,67.5,8.77l0,0A15.54,15.54,0,0,1,74.77,17.5Z"/><path class="cls-1" d="M97.12,48.72l-.42.14A53,53,0,0,1,45.44,38.71a18.28,18.28,0,0,1-5.69-18.95,18.2,18.2,0,0,0,6.27,16A53,53,0,0,0,97.27,45.92l.43-.14a18.16,18.16,0,0,0,11.93-12.5A18.24,18.24,0,0,1,97.12,48.72Z"/><path class="cls-2" d="M63.31,4.73A52.84,52.84,0,0,1,83.46,6.52,45.47,45.47,0,0,0,63.31,4.73Z"/><path d="M69.45,4.31a45.14,45.14,0,0,0-6.14.42A52.54,52.54,0,0,1,83.46,6.52a45.6,45.6,0,0,0-14-2.21Z"/><path class="cls-3" d="M103.91,14.33l0,0a53,53,0,0,0-51.44-10l-.28.09a18.24,18.24,0,0,0-12.41,15.4,18.2,18.2,0,0,0,6.27,16c.47.41.95.81,1.44,1.19a52.88,52.88,0,0,0,48.6,9.34c.4-.11.81-.23,1.21-.37l.43-.14a18.42,18.42,0,0,0,6.21-31.45ZM93.84,42.41l-.36.12A45.58,45.58,0,0,1,49.4,33.79a15.66,15.66,0,0,1-5.33-14.31h0A15.72,15.72,0,0,1,54.68,6.77l.23-.08a45.59,45.59,0,0,1,44.24,8.63l0,0a15.55,15.55,0,0,1,5.39,10A15.83,15.83,0,0,1,93.84,42.41Z"/><path class="cls-4" d="M104.58,25.31A16.14,16.14,0,0,0,100,19l0,0A47,47,0,0,0,54.27,10l-.24.08a16.2,16.2,0,0,0-10,9.38A15.72,15.72,0,0,1,54.68,6.77l.23-.08a45.59,45.59,0,0,1,44.24,8.63l0,0A15.55,15.55,0,0,1,104.58,25.31Z"/></g></g></svg>