<svg xmlns="http://www.w3.org/2000/svg" viewBox="0 0 117.2 82.89"><defs><style>.cls-1{fill:#e25a09;}.cls-2{fill:#ef7c12;}</style></defs><g id="圖層_2" data-name="圖層 2"><g id="圖層_1-2" data-name="圖層 1"><path class="cls-1" d="M16.8,28.14c-20.91,13.1-17,30-.35,42.25,20.5,15.08,50.68,17.41,77,2,24-14,32.74-32.13,7.83-49.19s-52-15.49-84.5,4.9Z"/><path class="cls-1" d="M112.56,26.58s7.32,10.59,3.57,20.14S8.93,65.75,4.63,57.14s-6.7-18.73-2.26-28.59,110.19-2,110.19-2Z"/><path class="cls-2" d="M14.48,16.6c-20.9,13.1-17,30-.35,42.25,20.5,15.08,50.68,17.4,77,2,24-14,32.74-32.13,7.82-49.2S47-3.79,14.48,16.6Z"/><path class="cls-1" d="M8.92,37A149.07,149.07,0,0,1,37.6,17.39C55.24,8,67.76,5.25,67.76,5.25S53.07,15.46,42.82,20.44,8.92,37,8.92,37Z"/><path class="cls-1" d="M22.39,47A149.35,149.35,0,0,1,51.07,27.39C68.71,18,81.23,15.25,81.23,15.25S66.55,25.47,56.29,30.45,22.39,47,22.39,47Z"/><path class="cls-1" d="M35.88,56.93A149.76,149.76,0,0,1,64.56,37.35C82.2,28,94.73,25.21,94.73,25.21S80,35.43,69.79,40.41,35.88,56.93,35.88,56.93Z"/><path class="cls-1" d="M49.92,67.53A149.76,149.76,0,0,1,78.6,48c17.64-9.38,30.17-12.14,30.17-12.14S94.07,46,83.82,51s-33.9,16.52-33.9,16.52Z"/><path class="cls-1" d="M14.76,26.41A260,260,0,0,0,42.28,49.15c15.44,11,26.18,16.08,26.18,16.08S51.43,47,38.72,39a160.88,160.88,0,0,0-24-12.6Z"/><path class="cls-1" d="M33.16,15.65A259.24,259.24,0,0,0,60.68,38.38c15.44,11,26.18,16.1,26.18,16.1s-17-18.28-29.74-26.23a160.88,160.88,0,0,0-24-12.6Z"/><path class="cls-1" d="M51.31,6.46A260,260,0,0,0,78.83,29.2C94.27,40.16,105,45.29,105,45.29S88,27,75.27,19.06a161.45,161.45,0,0,0-24-12.6Z"/></g></g></svg>