<svg xmlns="http://www.w3.org/2000/svg" viewBox="0 0 123.47 73.44"><defs><style>.cls-1{fill:#c71e00;}.cls-2{fill:#ff7348;}.cls-3{fill:#a81400;}</style></defs><g id="圖層_2" data-name="圖層 2"><g id="圖層_1-2" data-name="圖層 1"><path class="cls-1" d="M54.55,13.17c-.12,0-.25,0-.36,0a1.62,1.62,0,0,1-.85-.24,1.86,1.86,0,0,1-1-1.57,1.74,1.74,0,0,1,1.78-1.81,2,2,0,0,1,1,.24A1.67,1.67,0,0,1,56,11.4a1.74,1.74,0,0,1-1.42,1.77Zm-14.37,0a2.09,2.09,0,0,1-1-.26,1.78,1.78,0,0,1,.88-3.33,2,2,0,0,1,1,.24A1.8,1.8,0,0,1,42,11.35a1.84,1.84,0,0,1-1.79,1.83ZM63.46,7.84A7.84,7.84,0,0,0,61.2,7,64,64,0,0,0,33,7c-4.79,1.12-5.21,4.41-1.54,6.54l9,5.16a14.75,14.75,0,0,0,13.47,0l8.89-5.16c3-1.72,3.21-4.23.65-5.69Z"/><path class="cls-2" d="M23.39,36.42l9-5.19c3.66-2.13,3.64-5.6,0-7.72l-9-5.22c-3.69-2.11-9.29-1.9-11.23.87-3.64,5.25-3.52,11.11.09,16.33a4.26,4.26,0,0,0,1.5,1.35c2.54,1.47,6.8,1.3,9.74-.42Zm38,11.25c4.86-1.08,5.21-4.34,1.53-6.46l-9-5.22a14.78,14.78,0,0,0-13.31,0l-9,5.22c-2.93,1.7-3.27,4.14-.71,5.6a8.42,8.42,0,0,0,2.39.9,63.37,63.37,0,0,0,28.08,0Zm-7.5-29,8.89-5.16c3-1.72,3.21-4.23.65-5.69A7.84,7.84,0,0,0,61.2,7,64,64,0,0,0,33,7c-4.79,1.12-5.21,4.41-1.54,6.54l9,5.16a14.75,14.75,0,0,0,13.47,0Zm17.14-.4-8.88,5.18c-3.71,2.16-3.71,5.63,0,7.76l9,5.19c3.67,2.14,9.37,1.87,11.23-.93a13.64,13.64,0,0,0,0-16.28,4.79,4.79,0,0,0-1.49-1.33c-2.59-1.49-6.85-1.31-9.82.41Zm6.55-8.58c16.9,9.76,17,25.55.2,35.31s-44,9.72-60.88-.05-17-25.55-.27-35.26,44-9.76,61,0Z"/><path class="cls-1" d="M19.7,32.48c1.79,0,3.07-.46,3.14-1,0-.21-.17-.39-.44-.55a5.28,5.28,0,0,0-2.71-.48c-1.72-.05-3.15.44-3.14,1,0,.18.17.35.43.51a6,6,0,0,0,2.72.53Zm-.06-8.16c1.83,0,3.08-.47,3.15-1,0-.21-.15-.39-.44-.56a5.58,5.58,0,0,0-2.71-.47c-1.72-.05-3.15.44-3.15,1a.9.9,0,0,0,.44.51,5.75,5.75,0,0,0,2.71.53Zm12.67-.81c3.68,2.12,3.7,5.59,0,7.72l-9,5.19c-2.94,1.72-7.2,1.89-9.74.42a4.26,4.26,0,0,1-1.5-1.35c-3.61-5.22-3.73-11.08-.09-16.33,1.94-2.77,7.54-3,11.23-.87l9,5.22Z"/><path class="cls-1" d="M16.93,45c16.9,9.77,44.15,9.77,60.88.05s16.7-25.55-.2-35.31S33.44,0,16.66,9.71,0,35.2,16.93,45ZM80.51,8C99,18.69,99.17,36,80.74,46.69s-48.31,10.7-66.8,0S-4.65,18.69,13.72,8,62-2.65,80.51,8Z"/><path class="cls-1" d="M74.82,32.48c1.8,0,3.07-.49,3.13-1,0-.21-.17-.39-.45-.55a5.51,5.51,0,0,0-2.63-.53c-1.79,0-3.2.49-3.14,1,0,.21.18.39.45.57a6,6,0,0,0,2.64.51Zm-.07-8.14c1.82,0,3.15-.43,3.15-1.06,0-.21-.15-.39-.43-.56a6,6,0,0,0-2.72-.47c-1.72-.05-3.15.44-3.15,1,0,.19.21.34.45.51a6.27,6.27,0,0,0,2.7.55ZM82.4,35.49c-1.86,2.8-7.56,3.07-11.23.93l-9-5.19c-3.69-2.13-3.69-5.6,0-7.76l8.88-5.18c3-1.72,7.23-1.9,9.82-.41a4.79,4.79,0,0,1,1.49,1.33,13.64,13.64,0,0,1,0,16.28Z"/><path class="cls-1" d="M54.37,45.14a1.77,1.77,0,0,0,1.78-1.81,1.65,1.65,0,0,0-.84-1.57,2.15,2.15,0,0,0-1-.26,1.76,1.76,0,0,0-1.8,1.83,1.84,1.84,0,0,0,1.81,1.81Zm-14.09,0a1.72,1.72,0,0,0,1.8-1.81,1.7,1.7,0,0,0-.86-1.57,2,2,0,0,0-.95-.26,1.74,1.74,0,0,0-1.78,1.83,1.82,1.82,0,0,0,.94,1.55,1.57,1.57,0,0,0,.85.26ZM63,41.21c3.68,2.12,3.33,5.38-1.53,6.46a63.37,63.37,0,0,1-28.08,0,8.42,8.42,0,0,1-2.39-.9c-2.56-1.46-2.22-3.9.71-5.6l9-5.22a14.78,14.78,0,0,1,13.31,0l9,5.22Z"/><path class="cls-2" d="M55.11,9.83A1.63,1.63,0,0,1,56,11.4a1.77,1.77,0,0,1-1.78,1.81,1.62,1.62,0,0,1-.85-.24,1.86,1.86,0,0,1-1-1.57,1.74,1.74,0,0,1,1.78-1.81,2,2,0,0,1,1,.24Z"/><path class="cls-2" d="M77.47,22.72c.28.17.43.35.43.56,0,.63-1.33,1-3.15,1.06a6.27,6.27,0,0,1-2.7-.55c-.24-.17-.41-.32-.45-.51,0-.59,1.43-1.08,3.15-1a6,6,0,0,1,2.72.47Z"/><path class="cls-2" d="M22.35,22.72c.29.17.44.35.44.56-.07.57-1.32,1-3.15,1.06a6,6,0,0,1-2.71-.55.9.9,0,0,1-.44-.51c0-.59,1.43-1.08,3.15-1a5.58,5.58,0,0,1,2.71.47Z"/><path class="cls-2" d="M77.5,30.89c.28.16.45.34.45.55-.06.58-1.33,1-3.13,1A6,6,0,0,1,72.18,32c-.27-.18-.45-.36-.45-.57-.06-.55,1.35-1,3.14-1a5.51,5.51,0,0,1,2.63.53Z"/><path class="cls-2" d="M22.4,30.89c.27.16.44.34.44.55-.07.58-1.35,1-3.14,1A6,6,0,0,1,17,32c-.26-.16-.41-.33-.43-.51,0-.59,1.42-1.08,3.14-1a5.28,5.28,0,0,1,2.71.48Z"/><path class="cls-2" d="M41.05,9.83A1.8,1.8,0,0,1,42,11.35a1.84,1.84,0,0,1-1.79,1.83,2.09,2.09,0,0,1-1-.26,1.78,1.78,0,0,1,.88-3.33,2,2,0,0,1,1,.24Z"/><path class="cls-2" d="M55.31,41.76a1.65,1.65,0,0,1,.84,1.57,1.77,1.77,0,0,1-1.78,1.81,1.84,1.84,0,0,1-1.81-1.81,1.76,1.76,0,0,1,1.8-1.83,2.15,2.15,0,0,1,1,.26Z"/><path class="cls-2" d="M41.22,41.76a1.7,1.7,0,0,1,.86,1.57,1.72,1.72,0,0,1-1.8,1.81,1.57,1.57,0,0,1-.85-.26,1.82,1.82,0,0,1-.94-1.55,1.74,1.74,0,0,1,1.78-1.83,2,2,0,0,1,.95.26Z"/><path class="cls-3" d="M93.19,33.8A17,17,0,0,1,92,36.18c-.32.54-.67,1.1-1,1.65a27,27,0,0,1-3.19,3.7c-.69.64-1.43,1.28-2.21,1.91s-1.48,1.15-2.29,1.7-1.64,1-2.52,1.55a43.82,43.82,0,0,1-4.63,2.38c-1.23.56-2.5,1.06-3.81,1.53-.16,0-.32.12-.49.19a64.21,64.21,0,0,1-7.15,2c-.65.17-1.31.3-2,.44,0,1.91,0,3.82,0,5.72,0,.32,0,.64,0,1l2-.41a70.29,70.29,0,0,0,7.13-2l.49-.17c1.31-.49,2.59-1,3.83-1.55a47.43,47.43,0,0,0,4.61-2.35c.88-.53,1.73-1,2.53-1.58s1.58-1.13,2.29-1.7,1.51-1.27,2.2-1.91a27.14,27.14,0,0,0,3.21-3.7c.38-.55.73-1.08,1-1.63a21.29,21.29,0,0,0,1.18-2.4,16.39,16.39,0,0,0,1.27-6.28c0-2,0-4.69,0-6.73a16.65,16.65,0,0,1-1.28,6.3Z"/><path class="cls-3" d="M48.26,54.7c-.33,0-.68,0-1,0a80,80,0,0,1-17.31-1.94l-.2,0c-2.27-.53-4.47-1.17-6.6-1.89-1.53-.53-3-1.12-4.43-1.75a48.07,48.07,0,0,1-4.75-2.42c-.91-.5-1.77-1-2.59-1.6S9.74,43.94,9,43.37s-1.54-1.32-2.24-2a25.58,25.58,0,0,1-3.29-3.83l-.09-.12-.14-.22A17.81,17.81,0,0,1,0,27.24v6.7a17.66,17.66,0,0,0,3.21,10l.16.24.07.11a25.75,25.75,0,0,0,3.31,3.83,28.81,28.81,0,0,0,2.23,2c.74.58,1.52,1.19,2.36,1.73s1.68,1.1,2.58,1.63q2.28,1.29,4.76,2.39c1.42.64,2.91,1.22,4.43,1.75,2.12.73,4.33,1.36,6.58,1.89l.21,0a80.09,80.09,0,0,0,17.32,1.94h1A80.85,80.85,0,0,0,62.67,60c0-2.25,0-4.47,0-6.71A78.29,78.29,0,0,1,48.26,54.7Z"/><path class="cls-1" d="M83.55,25.17c-.12,0-.25,0-.36,0a1.62,1.62,0,0,1-.85-.24,1.86,1.86,0,0,1-1-1.57,1.74,1.74,0,0,1,1.78-1.81,2,2,0,0,1,1,.24A1.67,1.67,0,0,1,85,23.4a1.74,1.74,0,0,1-1.42,1.77Zm-14.37,0a2.09,2.09,0,0,1-1-.26,1.78,1.78,0,0,1,.88-3.33,2,2,0,0,1,1,.24A1.8,1.8,0,0,1,71,23.35a1.84,1.84,0,0,1-1.79,1.83Zm23.28-5.34A7.84,7.84,0,0,0,90.2,19,64,64,0,0,0,62,19c-4.79,1.12-5.21,4.41-1.54,6.54l9,5.16a14.75,14.75,0,0,0,13.47,0l8.89-5.16c3-1.72,3.21-4.23.65-5.69Z"/><path class="cls-2" d="M52.39,48.42l9-5.19c3.66-2.13,3.64-5.6,0-7.72l-9-5.22c-3.69-2.11-9.29-1.9-11.23.87-3.64,5.25-3.52,11.11.09,16.33a4.26,4.26,0,0,0,1.5,1.35c2.54,1.47,6.8,1.3,9.74-.42Zm38,11.25c4.86-1.08,5.21-4.34,1.53-6.46l-9-5.22a14.78,14.78,0,0,0-13.31,0l-9,5.22c-2.93,1.7-3.27,4.14-.71,5.6a8.42,8.42,0,0,0,2.39.9,63.37,63.37,0,0,0,28.08,0Zm-7.5-29,8.89-5.16c3-1.72,3.21-4.23.65-5.69A7.84,7.84,0,0,0,90.2,19,64,64,0,0,0,62,19c-4.79,1.12-5.21,4.41-1.54,6.54l9,5.16a14.75,14.75,0,0,0,13.47,0Zm17.14-.4-8.88,5.18c-3.71,2.16-3.71,5.63,0,7.76l9,5.19c3.67,2.14,9.37,1.87,11.23-.93a13.64,13.64,0,0,0,0-16.28,4.79,4.79,0,0,0-1.49-1.33c-2.59-1.49-6.85-1.31-9.82.41Zm6.55-8.58c16.9,9.76,17,25.55.2,35.31s-44,9.72-60.88-.05-17-25.55-.27-35.26,44-9.76,61,0Z"/><path class="cls-1" d="M48.7,44.48c1.79,0,3.07-.46,3.14-1,0-.21-.17-.39-.44-.55a5.28,5.28,0,0,0-2.71-.48c-1.72,0-3.15.44-3.14,1,0,.18.17.35.43.51a6,6,0,0,0,2.72.53Zm-.06-8.16c1.83,0,3.08-.47,3.15-1,0-.21-.15-.39-.44-.56a5.58,5.58,0,0,0-2.71-.47c-1.72,0-3.15.44-3.15,1a.9.9,0,0,0,.44.51,5.75,5.75,0,0,0,2.71.53Zm12.67-.81c3.68,2.12,3.7,5.59,0,7.72l-9,5.19c-2.94,1.72-7.2,1.89-9.74.42a4.26,4.26,0,0,1-1.5-1.35c-3.61-5.22-3.73-11.08-.09-16.33,1.94-2.77,7.54-3,11.23-.87l9,5.22Z"/><path class="cls-1" d="M45.93,57c16.9,9.77,44.15,9.77,60.88.05s16.7-25.55-.2-35.31-44.17-9.76-60.95,0S29,47.2,45.93,57ZM109.51,20c18.48,10.67,18.66,28,.23,38.67s-48.31,10.7-66.8,0-18.59-28-.22-38.67S91,9.35,109.51,20Z"/><path class="cls-1" d="M103.82,44.48c1.8,0,3.07-.49,3.13-1,0-.21-.17-.39-.45-.55a5.51,5.51,0,0,0-2.63-.53c-1.79,0-3.2.49-3.14,1,0,.21.18.39.45.57a6,6,0,0,0,2.64.51Zm-.07-8.14c1.82,0,3.15-.43,3.15-1.06,0-.21-.15-.39-.43-.56a6,6,0,0,0-2.72-.47c-1.72,0-3.15.44-3.15,1,0,.19.21.34.45.51a6.27,6.27,0,0,0,2.7.55Zm7.65,11.15c-1.86,2.8-7.56,3.07-11.23.93l-9-5.19c-3.69-2.13-3.69-5.6,0-7.76l8.88-5.18c3-1.72,7.23-1.9,9.82-.41a4.79,4.79,0,0,1,1.49,1.33,13.64,13.64,0,0,1,0,16.28Z"/><path class="cls-1" d="M83.37,57.14a1.77,1.77,0,0,0,1.78-1.81,1.65,1.65,0,0,0-.84-1.57,2.15,2.15,0,0,0-1-.26,1.76,1.76,0,0,0-1.8,1.83,1.84,1.84,0,0,0,1.81,1.81Zm-14.09,0a1.72,1.72,0,0,0,1.8-1.81,1.7,1.7,0,0,0-.86-1.57,2,2,0,0,0-1-.26,1.74,1.74,0,0,0-1.78,1.83,1.82,1.82,0,0,0,.94,1.55,1.57,1.57,0,0,0,.85.26ZM92,53.21c3.68,2.12,3.33,5.38-1.53,6.46a63.37,63.37,0,0,1-28.08,0,8.42,8.42,0,0,1-2.39-.9c-2.56-1.46-2.22-3.9.71-5.6l9-5.22a14.78,14.78,0,0,1,13.31,0l9,5.22Z"/><path class="cls-2" d="M84.11,21.83A1.63,1.63,0,0,1,85,23.4a1.77,1.77,0,0,1-1.78,1.81,1.62,1.62,0,0,1-.85-.24,1.86,1.86,0,0,1-1-1.57,1.74,1.74,0,0,1,1.78-1.81,2,2,0,0,1,1,.24Z"/><path class="cls-2" d="M106.47,34.72c.28.17.43.35.43.56,0,.63-1.33,1-3.15,1.06a6.27,6.27,0,0,1-2.7-.55c-.24-.17-.41-.32-.45-.51,0-.59,1.43-1.08,3.15-1a6,6,0,0,1,2.72.47Z"/><path class="cls-2" d="M51.35,34.72c.29.17.44.35.44.56-.07.57-1.32,1-3.15,1.06a6,6,0,0,1-2.71-.55.9.9,0,0,1-.44-.51c0-.59,1.43-1.08,3.15-1a5.58,5.58,0,0,1,2.71.47Z"/><path class="cls-2" d="M106.5,42.89c.28.16.45.34.45.55-.06.58-1.33,1-3.13,1a6,6,0,0,1-2.64-.51c-.27-.18-.45-.36-.45-.57-.06-.55,1.35-1,3.14-1a5.51,5.51,0,0,1,2.63.53Z"/><path class="cls-2" d="M51.4,42.89c.27.16.44.34.44.55-.07.58-1.35,1-3.14,1A6,6,0,0,1,46,44c-.26-.16-.41-.33-.43-.51,0-.59,1.42-1.08,3.14-1a5.28,5.28,0,0,1,2.71.48Z"/><path class="cls-2" d="M70.05,21.83A1.8,1.8,0,0,1,71,23.35a1.84,1.84,0,0,1-1.79,1.83,2.09,2.09,0,0,1-1-.26,1.78,1.78,0,0,1,.88-3.33,2,2,0,0,1,1,.24Z"/><path class="cls-2" d="M84.31,53.76a1.65,1.65,0,0,1,.84,1.57,1.77,1.77,0,0,1-1.78,1.81,1.84,1.84,0,0,1-1.81-1.81,1.76,1.76,0,0,1,1.8-1.83,2.15,2.15,0,0,1,1,.26Z"/><path class="cls-2" d="M70.22,53.76a1.7,1.7,0,0,1,.86,1.57,1.72,1.72,0,0,1-1.8,1.81,1.57,1.57,0,0,1-.85-.26,1.82,1.82,0,0,1-.94-1.55,1.74,1.74,0,0,1,1.78-1.83,2,2,0,0,1,1,.26Z"/><path class="cls-3" d="M122.19,45.8A17,17,0,0,1,121,48.18c-.32.54-.67,1.1-1,1.65a27,27,0,0,1-3.19,3.7c-.69.64-1.43,1.28-2.21,1.91s-1.48,1.15-2.29,1.7-1.64,1-2.52,1.55a43.82,43.82,0,0,1-4.63,2.38c-1.23.56-2.5,1.06-3.81,1.53-.16,0-.32.12-.49.19a64.21,64.21,0,0,1-7.15,2c-.65.17-1.31.3-2,.44,0,1.91,0,3.82,0,5.72,0,.32,0,.64,0,1l2-.41a70.29,70.29,0,0,0,7.13-2l.49-.17c1.31-.49,2.59-1,3.83-1.55a47.43,47.43,0,0,0,4.61-2.35c.88-.53,1.73-1.05,2.53-1.58s1.58-1.13,2.29-1.7,1.51-1.27,2.2-1.91a27.14,27.14,0,0,0,3.21-3.7c.38-.55.73-1.08,1-1.63a21.29,21.29,0,0,0,1.18-2.4,16.39,16.39,0,0,0,1.27-6.28c0-2,0-4.69,0-6.73a16.65,16.65,0,0,1-1.28,6.3Z"/><path class="cls-3" d="M77.26,66.7c-.33,0-.68,0-1,0a80,80,0,0,1-17.31-1.94l-.2,0c-2.27-.53-4.47-1.17-6.6-1.89-1.53-.53-3-1.12-4.43-1.75a48.07,48.07,0,0,1-4.75-2.42c-.91-.5-1.77-1-2.59-1.6S38.74,55.94,38,55.37s-1.54-1.32-2.24-2a25.58,25.58,0,0,1-3.29-3.83l-.09-.12-.14-.22a17.81,17.81,0,0,1-3.23-10v6.7a17.66,17.66,0,0,0,3.21,10l.16.24.07.11a25.75,25.75,0,0,0,3.31,3.83,28.81,28.81,0,0,0,2.23,2c.74.58,1.52,1.19,2.36,1.73s1.68,1.1,2.58,1.63q2.28,1.29,4.76,2.39c1.42.64,2.91,1.22,4.43,1.75,2.12.73,4.33,1.36,6.58,1.89l.21,0a80.09,80.09,0,0,0,17.32,1.94h1A80.85,80.85,0,0,0,91.67,72c0-2.25,0-4.47,0-6.71A78.29,78.29,0,0,1,77.26,66.7Z"/></g></g></svg>